<svg width="452" height="150" viewBox="0 0 452 150" fill="none" xmlns="http://www.w3.org/2000/svg">
<path d="M151 1H299.63V81.4346L292.273 92.9582L299.63 103.214V150H151V74.1748L155.598 68.8739L151 63.8036V1Z" fill="#016FD0"/>
<path d="M179.852 104.828V81.4348H204.559L207.21 84.8991L209.948 81.4348H299.629V103.214C299.629 103.214 297.284 104.804 294.571 104.828H244.913L241.924 101.14V104.828H232.131V98.5329C232.131 98.5329 230.793 99.4116 227.901 99.4116H224.567V104.828H209.738L207.091 101.289L204.404 104.828H179.852Z" fill="white"/>
<path d="M151 63.8034L156.572 50.7817H166.207L169.369 58.0759V50.7817H181.347L183.229 56.0538L185.054 50.7817H238.822V53.4322C238.822 53.4322 241.648 50.7817 246.293 50.7817L263.739 50.8429L266.846 58.0416V50.7817H276.87L279.629 54.9168V50.7817H289.744V74.1746H279.629L276.985 70.0261V74.1746H262.258L260.777 70.4871H256.818L255.361 74.1746H245.374C241.377 74.1746 238.822 71.5783 238.822 71.5783V74.1746H223.763L220.775 70.4871V74.1746H164.78L163.3 70.4871H159.353L157.884 74.1746H151V63.8034Z" fill="white"/>
<path d="M158.544 53.6658L151.029 71.1816H155.922L157.308 67.6741H165.369L166.749 71.1816H171.749L164.241 53.6658H158.544ZM161.324 57.7422L163.782 63.8714H158.86L161.324 57.7422V57.7422Z" fill="#016FD0"/>
<path d="M172.266 71.1784V53.6626L179.219 53.6885L183.263 64.9816L187.21 53.6626H194.107V71.1784H189.738V58.272L185.108 71.1784H181.277L176.634 58.272V71.1784H172.266Z" fill="#016FD0"/>
<path d="M197.095 71.1784V53.6626H211.348V57.5806H201.509V60.5767H211.119V64.2643H201.509V67.3757H211.348V71.1784H197.095Z" fill="#016FD0"/>
<path d="M213.877 53.6658V71.1816H218.246V64.9589H220.085L225.322 71.1816H230.66L224.913 64.7284C227.271 64.5289 229.705 62.4993 229.705 59.3484C229.705 55.6624 226.819 53.6658 223.598 53.6658H213.877V53.6658ZM218.246 57.5838H223.239C224.436 57.5838 225.308 58.5231 225.308 59.4276C225.308 60.5912 224.179 61.2713 223.303 61.2713H218.246V57.5838V57.5838Z" fill="#016FD0"/>
<path d="M235.948 71.1784H231.488V53.6626H235.948V71.1784Z" fill="#016FD0"/>
<path d="M246.523 71.1784H245.56C240.902 71.1784 238.074 67.4996 238.074 62.4925C238.074 57.3618 240.87 53.6626 246.752 53.6626H251.58V57.8111H246.576C244.188 57.8111 242.499 59.6792 242.499 62.5358C242.499 65.9279 244.43 67.3526 247.212 67.3526H248.362L246.523 71.1784Z" fill="#016FD0"/>
<path d="M256.029 53.6658L248.514 71.1816H253.407L254.793 67.6741H262.854L264.234 71.1816H269.234L261.726 53.6658H256.029ZM258.809 57.7422L261.266 63.8714H256.345L258.809 57.7422Z" fill="#016FD0"/>
<path d="M269.743 71.1784V53.6626H275.296L282.387 64.6676V53.6626H286.755V71.1784H281.381L274.111 59.8853V71.1784H269.743Z" fill="#016FD0"/>
<path d="M182.841 101.831V84.3154H197.095V88.2335H187.255V91.2296H196.865V94.9171H187.255V98.0285H197.095V101.831H182.841Z" fill="#016FD0"/>
<path d="M252.685 101.831V84.3154H266.938V88.2335H257.099V91.2296H266.662V94.9171H257.099V98.0285H266.938V101.831H252.685Z" fill="#016FD0"/>
<path d="M197.648 101.831L204.588 93.1814L197.483 84.3154H202.986L207.218 89.7963L211.464 84.3154H216.751L209.739 93.0734L216.692 101.831H211.19L207.081 96.4368L203.072 101.831H197.648Z" fill="#016FD0"/>
<path d="M217.211 84.3186V101.834H221.694V96.3031H226.292C230.183 96.3031 233.132 94.234 233.132 90.21C233.132 86.8766 230.819 84.3186 226.86 84.3186H217.211V84.3186ZM221.694 88.2798H226.537C227.794 88.2798 228.692 89.0521 228.692 90.2965C228.692 91.4655 227.798 92.3131 226.522 92.3131H221.694V88.2798Z" fill="#016FD0"/>
<path d="M235.028 84.3154V101.831H239.396V95.6085H241.235L246.473 101.831H251.811L246.063 95.3781C248.422 95.1785 250.855 93.149 250.855 89.998C250.855 86.3121 247.969 84.3154 244.748 84.3154H235.028V84.3154ZM239.396 88.2335H244.389C245.587 88.2335 246.458 89.1727 246.458 90.0772C246.458 91.2409 245.329 91.921 244.454 91.921H239.396V88.2335V88.2335Z" fill="#016FD0"/>
<path d="M268.961 101.831V98.0285H277.703C278.997 98.0285 279.557 97.3278 279.557 96.5592C279.557 95.8229 278.999 95.0785 277.703 95.0785H273.753C270.319 95.0785 268.407 92.9812 268.407 89.8324C268.407 87.0238 270.158 84.3154 275.261 84.3154H283.767L281.928 88.2565H274.571C273.165 88.2565 272.732 88.9963 272.732 89.7027C272.732 90.4288 273.267 91.2296 274.341 91.2296H278.479C282.307 91.2296 283.968 93.4063 283.968 96.2567C283.968 99.3213 282.117 101.831 278.271 101.831H268.961Z" fill="#016FD0"/>
<path d="M284.994 101.831V98.0285H293.736C295.029 98.0285 295.589 97.3278 295.589 96.5592C295.589 95.8229 295.031 95.0785 293.736 95.0785H289.785C286.351 95.0785 284.439 92.9812 284.439 89.8324C284.439 87.0238 286.19 84.3154 291.293 84.3154H299.799L297.96 88.2565H290.603C289.197 88.2565 288.764 88.9963 288.764 89.7027C288.764 90.4288 289.299 91.2296 290.373 91.2296H294.511C298.339 91.2296 300 93.4063 300 96.2567C300 99.3213 298.149 101.831 294.303 101.831H284.994Z" fill="#016FD0"/>
</svg>
