<svg width="452" height="150" viewBox="0 0 452 150" fill="none" xmlns="http://www.w3.org/2000/svg">
<path d="M238.334 79.6255C236.103 79.3775 234.305 78.7577 232.942 77.828C232.26 77.3322 231.64 76.6504 231.082 75.8447C230.587 75.101 230.153 74.2952 229.781 73.3655L215.526 36.7358C215.402 36.4259 215.092 36.116 214.224 36.116C213.418 36.116 213.108 36.4878 212.984 36.7977L196.808 73.4275C195.63 75.8447 194.515 77.4562 193.461 78.2619C192.903 78.6338 192.221 79.0057 191.416 79.2536L189.618 79.6255H189.432L189.06 79.6874C188.689 79.7494 188.007 79.9353 188.007 80.927C188.007 81.8567 188.503 81.9807 188.813 81.9807L192.841 81.7947L196.56 81.6088L200.775 81.7947L205.423 81.9807C205.733 81.9807 206.291 81.8567 206.291 80.865C206.291 80.1213 206.043 79.6874 205.609 79.6874C202.076 79.5635 200.279 78.5718 200.279 76.8984L200.403 75.9687C200.837 74.915 201.766 73.3655 203.997 72.3119L205.361 71.7541L206.849 71.3822L207.592 71.2582L208.708 71.1343L210.753 71.0723C212.241 71.0723 213.666 71.1963 214.968 71.4442C217.695 71.94 219.988 72.9937 221.6 74.4812L221.91 74.7911L222.095 74.977L222.219 75.101L222.529 75.4109L223.025 76.0926L223.087 76.2786L223.273 77.3322C223.273 78.076 222.901 78.6338 222.095 79.0057C221.228 79.3775 219.74 79.6874 217.819 79.7494C217.385 79.7494 217.137 80.1213 217.137 80.927C217.137 81.8567 217.571 82.0426 217.943 82.0426L223.583 81.8567L228.789 81.6708L233.19 81.8567L238.582 82.0426C238.892 82.0426 239.388 81.9187 239.388 80.927C239.264 79.8734 238.706 79.6874 238.334 79.6255ZM220.174 68.5931L218.315 68.1593L215.96 67.7874L213.79 67.6015H213.604H213.232H212.675H211.125H210.691L209.08 67.7254L206.415 68.2212L204.617 68.7791L204.183 68.903C204.121 68.965 203.192 69.3989 202.51 69.7088C202.696 69.2129 203.75 66.4858 203.75 66.4858L206.167 60.5358L209.452 52.4165C209.452 52.4165 211.311 47.7681 211.931 46.2806C212.241 47.1483 217.757 61.8374 217.757 61.8374L218.501 63.8827L219.864 67.4775C219.864 67.4775 220.112 68.0973 220.236 68.5311L220.174 68.5931Z" fill="#006EAB"/>
<path d="M98.3845 79.2536C95.7814 78.9437 93.6741 78.262 92.1866 77.1463C91.3808 76.5885 90.6371 75.8448 90.0173 74.9151C89.4595 74.0474 88.9637 73.1177 88.5298 72.002L71.9813 29.4842C71.8574 29.1124 71.4235 28.7405 70.4938 28.7405C69.5641 28.7405 69.1923 29.1743 69.0683 29.5462L50.2266 72.064C48.863 74.8531 47.5615 76.7744 46.3219 77.6422C45.7021 78.138 44.8964 78.4479 43.9667 78.7578L41.8594 79.1916L41.6734 79.2536L41.2396 79.3156C40.8057 79.3776 40 79.5635 40 80.7411C40 81.7948 40.5578 81.9807 40.9297 81.9807L45.5781 81.7328L49.8547 81.5468L54.7511 81.7328L60.0813 81.9807C60.4532 81.9807 61.073 81.7948 61.073 80.6172C61.073 79.7494 60.825 79.3156 60.2672 79.3156C56.1766 79.1297 54.1313 78.014 54.1313 76.0927L54.2552 74.9771C54.7511 73.7375 55.8667 71.9401 58.4698 70.7005L60.0193 70.0807L61.7547 69.5848L62.6224 69.4609L63.862 69.2749L66.2172 69.151C67.9527 69.151 69.6261 69.2749 71.1136 69.5848C74.3365 70.1427 76.8777 71.3823 78.7991 73.1177L79.1709 73.4895L79.3569 73.6755L79.4808 73.7994L79.8527 74.1713L80.4105 74.9771L80.5345 75.163L80.7204 76.4026C80.7204 77.2703 80.2866 77.9521 79.3569 78.3859C78.3652 78.8818 76.6918 79.1297 74.3365 79.1916C73.8407 79.1916 73.5308 79.6255 73.5308 80.4932C73.5308 81.6088 74.0266 81.8567 74.5225 81.8567L81.0303 81.6088L87.0423 81.4229L92.1866 81.6088L98.4465 81.8567C98.8184 81.8567 99.4382 81.6708 99.4382 80.4932C99.5001 79.5015 98.8184 79.3156 98.3845 79.2536ZM77.3735 66.4239L75.2042 65.9281L72.4152 65.4942L69.936 65.2463H69.6881L69.2542 65.1843H68.6344H66.837H66.3412L64.6058 65.3083L61.5068 65.8661L59.4615 66.4859L58.9657 66.6718C58.9037 66.6718 57.7881 67.2296 56.9823 67.6635C57.2302 67.1057 58.4698 63.9447 58.4698 63.9447L61.2589 57.065L65.0396 47.6442C65.0396 47.6442 67.2089 42.252 67.8907 40.5785C68.2626 41.5702 74.6464 58.6765 74.6464 58.6765L75.5141 61.0317L77.0636 65.1843C77.0636 65.1843 77.3115 65.9281 77.5595 66.4239H77.3735Z" fill="#006EAB"/>
<path d="M346.116 37.4796C346.116 37.4796 346.054 36.5499 345 36.6738C341.839 37.1697 335.269 37.4176 325.539 37.4176C315.932 37.4176 309.486 37.1697 306.387 36.6118C305.519 36.4879 305.395 37.1077 305.395 37.1077C304.404 40.9504 303.288 44.4832 302.172 47.5202C302.172 47.9541 302.358 48.5739 303.474 48.5739C303.97 48.5739 304.28 48.326 304.404 47.9541C305.147 45.5989 306.697 43.6775 309.052 42.19C311.407 40.7025 314.134 39.9587 317.047 39.9587H319.527C320.766 39.9587 321.324 40.2067 321.51 40.3926C321.82 40.7025 322.006 41.2603 322.006 42.128V74.4812C322.006 76.3406 321.572 77.6422 320.766 78.2C319.898 78.8198 318.163 79.3156 315.622 79.5635C315.312 79.6255 314.878 79.8114 314.878 80.6792C314.878 81.6708 315.374 81.7948 315.684 81.7948L320.766 81.6088L325.539 81.4229L330.249 81.6088L335.331 81.7948C335.641 81.7948 336.137 81.6708 336.137 80.6792C336.137 79.8114 335.641 79.6255 335.393 79.5635C333.658 79.3776 332.294 79.0677 331.365 78.7578C330.497 78.3859 329.877 77.9521 329.505 77.4562C329.133 76.8984 328.947 75.9067 328.947 74.4812V42.128C328.947 41.2603 329.133 40.7025 329.443 40.3926C329.753 40.0827 330.435 39.9587 331.365 39.9587H334.34C337.625 39.9587 340.104 40.5785 341.777 41.7561C343.451 42.9957 344.69 45.041 345.62 47.9541C345.744 48.326 346.054 48.5739 346.488 48.5739C347.603 48.5739 347.913 48.078 347.913 47.7062V47.6442C347.045 43.5535 346.426 40.1447 346.116 37.4796Z" fill="#006EAB"/>
<path d="M297.028 37.1076L292.999 37.2936L288.723 37.4795L284.57 37.2936L279.984 37.1076C279.674 37.1076 279.24 37.2316 279.24 38.2233C279.24 39.091 279.612 39.2769 279.984 39.3389C282.711 39.6488 284.57 40.1446 285.562 40.8884C286.492 41.5702 286.987 42.8097 286.987 44.4832V71.0103C286.182 70.0806 260.336 41.1983 257.051 37.4795C256.68 37.1076 256.122 37.1076 256.06 37.1076L253.767 37.2316L251.101 37.4175L248.436 37.2316L245.275 37.0457C244.965 37.0457 244.532 37.2316 244.532 38.1613C244.532 39.091 244.904 39.3389 245.213 39.3389C247.817 39.6488 249.676 40.1446 250.668 40.8264C251.597 41.4462 252.031 42.5618 252.031 44.2353V44.4832L250.916 74.4812C250.854 76.3405 250.358 77.5801 249.49 78.1999C248.56 78.8197 246.763 79.3156 244.222 79.6255C243.912 79.6874 243.416 79.8734 243.416 80.7411C243.416 81.7327 243.912 81.8567 244.16 81.8567L248.25 81.6708L252.527 81.4848L256.68 81.6708L261.266 81.8567C261.576 81.8567 262.01 81.7327 262.01 80.7411C262.01 79.8734 261.576 79.6874 261.266 79.6255C258.663 79.3156 256.866 78.8197 255.874 78.1999C254.882 77.5801 254.448 76.5265 254.448 74.977V74.5431C254.448 74.5431 254.82 49.9374 254.882 45.7228C255.75 46.7144 287.297 82.3525 287.297 82.3525C287.793 82.7864 288.227 82.9103 288.537 82.9103C289.467 82.9103 289.529 82.2906 289.529 82.0426L290.21 44.4832C290.272 42.6238 290.706 41.3842 291.636 40.7644C292.566 40.0826 294.363 39.6488 296.966 39.3389C297.276 39.2769 297.71 39.091 297.71 38.2233C297.772 37.2316 297.276 37.1076 297.028 37.1076Z" fill="#006EAB"/>
<path d="M409.645 62.6431C408.219 60.7837 405.058 58.4905 400.41 55.7634C396.505 53.4702 393.964 51.6728 392.786 50.3092C391.671 49.0077 391.113 47.5821 391.113 46.1566C391.113 43.8634 391.795 42.004 393.158 40.6404C394.522 39.2769 396.381 38.5951 398.675 38.5951C401.092 38.5951 403.075 39.2769 404.377 40.6404C405.802 42.004 406.856 44.2972 407.538 47.3962C407.6 47.7061 407.847 48.14 408.777 48.14C409.707 48.14 409.831 47.6441 409.831 47.3962C409.521 45.2269 409.273 42.8717 409.025 40.2686C409.025 40.2686 408.963 37.7274 403.571 36.6738C401.773 36.3019 400.162 36.116 398.736 36.116C394.77 36.116 391.423 37.3555 388.82 39.7727C386.217 42.1899 384.915 45.2269 384.915 48.7597C384.915 51.053 385.659 53.1603 387.084 55.0816C388.51 56.941 391.609 59.2343 396.195 61.8994C400.162 64.1926 402.765 66.114 404.005 67.5395C405.182 68.965 405.802 70.5145 405.802 72.1879C405.802 74.7911 405.12 76.8364 403.757 78.2619C402.393 79.6874 400.472 80.4312 397.993 80.4312C394.832 80.4312 392.415 79.6255 390.679 78.076C388.944 76.5265 387.456 73.7374 386.341 69.8327C386.217 69.5228 385.969 69.1509 385.287 69.1509C384.233 69.1509 384.047 69.6468 384.047 69.9567C384.357 72.8697 384.543 75.7827 384.729 78.6958L384.791 78.8817C384.853 80.2452 387.456 81.1749 389.13 81.6088C389.502 81.6708 389.873 81.7947 390.245 81.8567L390.431 81.9187L390.989 82.0426C393.654 82.7244 395.947 83.0343 397.807 83.0343C402.145 83.0343 405.616 81.7327 408.157 79.1916C410.698 76.6504 412 73.2416 412 68.965C411.876 66.6098 411.132 64.5025 409.645 62.6431Z" fill="#006EAB"/>
<path d="M368.057 41.5082C368.367 40.9504 368.986 40.5165 369.854 40.2066C370.784 39.8967 372.085 39.5868 373.883 39.4009C374.131 39.4009 374.627 39.2769 374.627 38.2233C374.627 37.2316 374.131 37.1077 373.883 37.1077L368.801 37.2936L364.09 37.4795L359.38 37.2936L354.235 37.1077C353.864 37.1077 353.492 37.2936 353.492 38.2233C353.492 39.153 353.926 39.4009 354.235 39.4009C355.971 39.5868 357.334 39.8967 358.264 40.2066C359.132 40.5165 359.752 41.0124 360.123 41.5082C360.433 42.066 360.619 43.0577 360.619 44.4832V74.4812C360.619 76.3406 360.185 77.6421 359.318 78.1999C358.45 78.8197 356.715 79.3156 354.173 79.5635C353.864 79.6255 353.43 79.8114 353.43 80.6791C353.43 81.6708 353.925 81.7948 354.173 81.7948L359.318 81.6088L364.028 81.4229L368.739 81.6088L373.821 81.7948C374.131 81.7948 374.565 81.6708 374.565 80.6791C374.565 79.8114 374.069 79.6255 373.821 79.5635C372.085 79.3776 370.722 79.0677 369.792 78.7578C368.924 78.3859 368.305 78.014 367.995 77.4562C367.623 76.8984 367.499 75.9067 367.499 74.4812V44.4832C367.561 43.0577 367.747 42.066 368.057 41.5082Z" fill="#006EAB"/>
<path d="M184.474 68.841C184.04 68.841 183.792 68.965 183.668 69.2129C181.932 72.9937 180.135 75.5348 178.4 76.8983C176.602 78.2619 174.433 78.9437 171.954 78.9437H165.632C163.339 78.9437 162.223 77.7661 162.223 75.4108V44.4832C162.223 42.9957 162.409 42.004 162.719 41.4462C163.029 40.8884 163.649 40.4545 164.516 40.1446C165.446 39.8347 166.748 39.5248 168.545 39.3389C168.793 39.3389 169.289 39.2149 169.289 38.1613C169.289 37.1696 168.855 37.0457 168.545 37.0457L163.463 37.2316L158.752 37.4175L153.98 37.2316L148.835 37.0457C148.464 37.0457 148.092 37.2316 148.092 38.1613C148.092 39.091 148.526 39.3389 148.835 39.3389C150.571 39.5248 151.934 39.8347 152.864 40.1446C153.732 40.4545 154.352 40.9504 154.662 41.4462C155.033 42.004 155.157 42.9957 155.157 44.4212V74.4192C155.157 76.2786 154.724 77.5801 153.856 78.1379C152.988 78.7577 151.253 79.2536 148.712 79.5015C148.34 79.5635 147.968 79.7494 147.968 80.6171C147.968 81.6088 148.464 81.7327 148.712 81.7327L165.818 81.3609L182.428 81.7327C182.428 81.7327 183.42 81.7327 183.544 80.8031C184.102 77.0223 184.845 73.3655 185.775 69.8327V69.7707C185.775 69.4608 185.589 69.2129 185.279 68.965L184.474 68.841Z" fill="#006EAB"/>
<path d="M140.097 37.4796C140.097 37.4796 140.035 36.5499 139.043 36.6738C135.882 37.1697 129.312 37.4176 119.582 37.4176C109.975 37.4176 103.529 37.1697 100.368 36.6118C99.5002 36.4879 99.3762 37.1077 99.3762 37.1077C98.3846 40.9504 97.2689 44.4832 96.1533 47.5202C96.1533 47.9541 96.3393 48.5739 97.4549 48.5739C97.9507 48.5739 98.2606 48.326 98.3846 47.9541C99.1283 45.5989 100.678 43.6775 103.033 42.19C105.388 40.7025 108.115 39.9587 111.028 39.9587H113.508C114.747 39.9587 115.305 40.2067 115.491 40.3926C115.801 40.7025 115.987 41.2603 115.987 42.128V74.4812C115.987 76.3406 115.553 77.6422 114.685 78.2C113.817 78.8198 112.082 79.3156 109.603 79.5635C109.293 79.6255 108.859 79.8114 108.859 80.6792C108.859 81.6708 109.355 81.7948 109.603 81.7948L114.747 81.6088L119.52 81.4229L124.168 81.6088L129.25 81.7948C129.56 81.7948 129.994 81.6708 129.994 80.6792C129.994 79.8114 129.56 79.6255 129.25 79.5635C127.515 79.3776 126.213 79.0677 125.284 78.7578C124.416 78.3859 123.796 77.9521 123.424 77.4562C123.052 76.8984 122.928 75.9067 122.928 74.4812V42.128C122.928 41.2603 123.114 40.7025 123.424 40.3926C123.734 40.0827 124.416 39.9587 125.408 39.9587H128.383C131.667 39.9587 134.147 40.5785 135.758 41.7561C137.432 42.9957 138.671 45.041 139.601 47.9541C139.725 48.326 140.035 48.5739 140.469 48.5739C141.646 48.5739 141.894 48.078 141.894 47.7062V47.6442C141.026 43.5535 140.407 40.1447 140.097 37.4796Z" fill="#006EAB"/>
<path d="M95.9674 118.425H93.9221V102.186H87.8481V100.327H102.103V102.186H95.9674V118.425Z" fill="#009CDE"/>
<path d="M110.595 110.305V118.425H108.549V100.327H110.595V108.384H121.069V100.327H123.114V118.425H121.069V110.305H110.595Z" fill="#009CDE"/>
<path d="M144.435 102.186H133.341V108.384H143.257V110.243H133.341V116.565H144.559V118.425H131.295V100.327H144.435V102.186Z" fill="#009CDE"/>
<path d="M168.235 112.041H163.835V118.425H161.79V100.327H168.607C172.698 100.327 175.363 102.496 175.363 106.091C175.363 109.995 172.078 112.041 168.235 112.041ZM168.421 102.186H163.835V110.181H168.297C171.272 110.181 173.256 108.57 173.256 106.153C173.256 103.55 171.334 102.186 168.421 102.186Z" fill="#009CDE"/>
<path d="M197.179 118.425H195.01L192.903 113.652H183.048L180.879 118.425H178.771L187.015 100.141H188.936L197.179 118.425ZM187.944 102.558L183.792 111.793H192.035L187.944 102.558Z" fill="#009CDE"/>
<path d="M203.501 100.327H205.547V116.565H215.773V118.425H203.501V100.327Z" fill="#009CDE"/>
<path d="M230.958 113.466H230.834L224.203 103.798V118.425H222.219V100.327H224.265L230.896 110.181L237.528 100.327H239.573V118.425H237.528V103.736L230.958 113.466Z" fill="#009CDE"/>
<path d="M248.808 118.425H247.878V115.698H250.234V118.053C250.234 120.16 249.366 121.152 247.383 121.586L247.073 120.656C248.374 120.222 248.932 119.54 248.808 118.425Z" fill="#009CDE"/>
<path d="M274.158 118.425H267.898V100.327H274.158C279.86 100.327 283.827 104.231 283.827 109.376C283.827 114.458 279.86 118.425 274.158 118.425ZM274.158 102.186H269.881V116.565H274.158C278.744 116.565 281.657 113.466 281.657 109.438C281.719 105.347 278.806 102.186 274.158 102.186Z" fill="#009CDE"/>
<path d="M305.891 110.677C305.891 115.945 302.854 118.735 298.33 118.735C293.867 118.735 290.768 116.007 290.768 110.863V100.327H292.813V110.739C292.813 114.644 294.859 116.875 298.33 116.875C301.676 116.875 303.784 114.83 303.784 110.925V100.389H305.829V110.677H305.891Z" fill="#009CDE"/>
<path d="M327.522 104.851C327.522 107.206 326.097 108.446 324.671 109.066C326.84 109.686 328.576 110.925 328.576 113.466C328.576 116.627 325.973 118.425 322.006 118.425H313.949V100.327H321.696C325.167 100.327 327.522 102.062 327.522 104.851ZM325.477 105.099C325.477 103.302 324.051 102.124 321.448 102.124H315.932V108.384H321.324C323.741 108.384 325.477 107.268 325.477 105.099ZM326.469 113.342C326.469 111.359 324.795 110.181 321.634 110.181H315.932V116.565H322.006C324.733 116.627 326.469 115.388 326.469 113.342Z" fill="#009CDE"/>
<path d="M352.004 118.425H349.835L347.727 113.652H337.873L335.703 118.425H333.596L341.839 100.141H343.761L352.004 118.425ZM342.769 102.558L338.617 111.793H346.922L342.769 102.558Z" fill="#009CDE"/>
<path d="M360.495 100.327H358.45V118.425H360.495V100.327Z" fill="#009CDE"/>
</svg>
