<svg width="452" height="150" viewBox="0 0 452 150" fill="none" xmlns="http://www.w3.org/2000/svg">
<path fill-rule="evenodd" clip-rule="evenodd" d="M195.179 59.9531V30.3899H201.956C206.183 30.3899 209.649 33.8542 209.649 38.0786V57.5281H201.029C198.365 57.7755 196.432 58.9059 195.179 59.9531Z" fill="#0EA3D3"/>
<path fill-rule="evenodd" clip-rule="evenodd" d="M242.002 30.2158C254.672 30.4732 264.874 40.8244 264.874 53.5591C264.874 66.4601 254.405 76.9262 241.509 76.9262C230.927 76.9262 220.261 76.6887 209.649 76.6887V93.4855C209.649 101.143 203.375 107.414 195.714 107.414H177.797C170.127 107.414 163.852 101.143 163.852 93.4855V61.3627L173.397 61.4557C176.924 61.814 178.992 65.2268 179.105 66.9748V85.0663C179.105 89.4768 182.723 93.0955 187.146 93.0955H195.179V68.8554C195.179 64.5379 198.706 61.0123 203.014 61.0123H242.002C246.599 61.0123 250.323 57.4569 250.323 53.0761C250.323 48.6874 246.599 45.132 242.002 45.132" fill="#E00685"/>
<path fill-rule="evenodd" clip-rule="evenodd" d="M171.555 30.3899H179.105V59.8303C174.65 55.7504 166.67 56.6947 163.852 57.1896V38.0786C163.852 33.8542 167.318 30.3899 171.555 30.3899Z" fill="#0EA3D3"/>
<path fill-rule="evenodd" clip-rule="evenodd" d="M334.593 30.3899H343.602V99.8181C343.602 104.001 340.176 107.414 336.001 107.414H328.401V36.5781C328.401 33.1772 331.188 30.3899 334.593 30.3899Z" fill="#0EA3D3"/>
<path fill-rule="evenodd" clip-rule="evenodd" d="M109.397 30.3899H141.247C148.92 30.3899 155.193 36.6612 155.193 44.3183V93.4853C155.193 101.142 148.92 107.414 141.247 107.414H109.397V30.3899ZM123.539 44.9042H132.075C136.773 44.9042 140.621 48.7506 140.621 53.4482V84.5534C140.621 89.251 136.773 93.0934 132.075 93.0934H123.539" fill="#0EA3D3"/>
<path fill-rule="evenodd" clip-rule="evenodd" d="M261.697 71.6624C263.465 75.0633 264.473 78.9294 264.473 83.0311C264.473 94.2356 256.997 103.692 246.773 106.705C240.049 108.679 232.798 107.414 225.866 107.414C221.794 107.414 218.462 104.084 218.462 100.012L218.637 80.2973L233.858 80.131V84.9236H233.867V84.9335C233.867 89.4866 237.559 93.1765 242.117 93.1765C246.672 93.1765 250.374 89.4866 250.374 84.9335C250.374 82.6511 249.449 80.5943 247.957 79.1056C255.103 79.1254 259.825 74.1091 261.697 71.6624Z" fill="#0EA3D3"/>
<path fill-rule="evenodd" clip-rule="evenodd" d="M237.971 80.1211H242.033C244.275 80.1211 246.105 81.9522 246.105 84.1931C246.105 86.4241 244.275 88.2532 242.033 88.2532C239.801 88.2532 237.971 86.4241 237.971 84.1931" fill="#E00685"/>
<path fill-rule="evenodd" clip-rule="evenodd" d="M273.842 80.5132H288.508V100.085C288.508 104.114 285.206 107.414 281.174 107.414H273.842" fill="#0EA3D3"/>
<path fill-rule="evenodd" clip-rule="evenodd" d="M319.556 73.2559C316.173 78.1276 311.123 80.2854 304.89 80.5111V100.083C304.89 104.114 308.191 107.414 312.224 107.414H319.556" fill="#0EA3D3"/>
<path fill-rule="evenodd" clip-rule="evenodd" d="M288.508 57.5598C279.756 57.445 278.409 56.3048 273.842 60.262V44.1758C273.842 37.2255 281.021 30.6572 287.078 30.6572H291.748C289.732 31.7678 288.589 33.6484 288.508 36.4337" fill="#0EA3D3"/>
<path fill-rule="evenodd" clip-rule="evenodd" d="M273.792 76.3501H304.603C313.117 76.3501 320.091 69.3899 320.091 60.8677V45.5833C320.091 37.5244 313.848 30.8433 305.951 30.1544L299.707 30C295.728 30 292.477 33.2584 292.477 37.2374V44.3817L292.406 44.4728H296.664C301.354 44.4728 305.179 48.3072 305.179 52.9949C305.179 57.6727 301.354 61.5052 296.664 61.5052C291.459 61.5052 286.328 61.5982 281.174 61.5982C277.114 61.5982 273.792 64.918 273.792 68.9801" fill="#E00685"/>
<path fill-rule="evenodd" clip-rule="evenodd" d="M176.75 110.981H180.822C183.054 110.981 184.884 112.81 184.884 115.041C184.884 117.282 183.054 119.111 180.822 119.111C178.58 119.111 176.75 117.282 176.75 115.041" fill="#E00685"/>
<path fill-rule="evenodd" clip-rule="evenodd" d="M188.884 110.981H192.946C195.189 110.981 197.009 112.81 197.009 115.041C197.009 117.282 195.189 119.111 192.946 119.111C190.714 119.111 188.884 117.282 188.884 115.041" fill="#E00685"/>
<path fill-rule="evenodd" clip-rule="evenodd" d="M218.801 30.2476H237.971V46.5811C235.401 47.371 233.507 49.7782 233.507 52.5951V57.1482H218.801" fill="#0EA3D3"/>
</svg>
