<svg width="452" height="150" viewBox="0 0 452 150" fill="none" xmlns="http://www.w3.org/2000/svg">
<path d="M297 0H156V150H297V0Z" fill="#D71A21"/>
<path d="M232.716 37.1943C231.828 38.351 231.335 39.7721 231.335 41.2262C231.335 41.7219 231.335 53.4541 231.335 53.8837C231.27 54.8421 230.908 55.7344 230.316 56.4945C229.987 56.825 228.047 58.5766 227.883 58.7748L228.968 58.8079C229.33 58.4774 233.078 55.1395 233.44 54.6769C234.525 53.4871 235.149 51.9339 235.149 50.3145C235.149 49.7857 235.149 38.6485 235.149 38.1527C235.117 36.9299 235.577 35.7072 236.432 34.8149C236.892 34.3191 238.339 33.0964 238.602 32.7989L237.451 32.7659C237.221 33.0633 233.111 36.7978 232.716 37.1943Z" fill="white"/>
<path d="M223.477 83.231L228.047 87.2299H231.105C234.031 87.2299 236.859 86.0732 238.93 83.9911C240.805 82.1074 241.495 79.5627 241.495 77.1832V70.6066C241.462 69.1194 240.838 67.6983 239.72 66.7069C239.522 66.5086 238.174 65.2197 238.174 65.2197V70.2761C238.174 70.2761 239.654 71.7963 239.917 72.0938C241.265 73.5479 241.265 76.1917 236.958 80.3889C236.201 81.1159 234.064 83.1649 231.105 83.1649L223.477 83.231Z" fill="white"/>
<path d="M236.201 56.2306C235.708 56.7593 235.215 58.0813 235.215 59.271V61.7496H237.714C238.7 61.7496 239.983 60.8573 240.246 60.3946C240.246 60.3616 240.246 57.916 240.246 57.916C240.607 58.4448 241.068 58.9405 241.594 59.3371C241.857 59.0066 244.158 56.2306 246.065 56.1975C249.255 56.1645 248.532 60.2294 247.249 61.5183C246.822 61.9479 244.948 63.6664 244.356 64.2282C242.843 65.6824 240.246 64.9883 240.246 61.2539C240.246 61.2539 237.484 63.8978 237.056 64.2613C236.629 64.6248 235.215 66.145 235.215 66.145V72.7216C235.215 75.8612 234.196 76.9188 233.341 77.8772C233.012 78.2407 229.494 81.4794 229 81.843L227.85 81.876C227.85 81.876 229.921 79.9922 230.316 79.5626C230.776 79.0669 231.335 78.0754 231.335 76.423C231.335 75.9934 231.269 66.112 231.269 66.112H215.223C209.634 66.112 208.45 59.8989 208.417 58.2135C208.417 57.7177 208.417 52.7605 208.417 51.9673C208.417 50.9428 207.76 49.2243 206.74 48.6956H208.319C208.516 48.7617 209.502 49.1582 209.502 52.9918C209.502 52.9918 209.436 57.4203 209.436 57.6847C209.436 59.6345 210.982 61.8488 213.185 61.8488L231.335 61.8157C231.335 61.32 231.828 59.4693 232.716 58.4778C233.209 57.916 237.122 54.3468 237.549 53.9833H238.7C238.536 54.1485 236.629 55.834 236.234 56.2967L236.201 56.2306ZM242.153 59.965C242.613 60.5929 243.139 61.2208 243.698 61.7827C245.671 63.369 246.592 61.6505 245.276 59.8659C244.75 59.1388 242.745 59.3371 242.153 59.965Z" fill="white"/>
<path d="M222.687 71.7302C222.687 72.6225 219.892 74.969 219.728 75.1012C219.531 74.1428 218.807 73.1183 216.736 71.0032L219.794 67.9297C221.865 70.0117 222.687 70.4744 222.687 71.7302V71.7302Z" fill="white"/>
<path d="M228.015 36.4015C228.639 37.0294 229.955 38.6818 229.166 39.508C228.475 40.2021 227.39 41.3257 227.39 41.3257C227.324 40.9291 226.305 39.9377 226.305 39.9377C226.305 39.9377 226.305 42.912 226.305 43.2755C226.272 44.6305 225.779 44.9941 225.779 44.9941C225.779 44.9941 228.245 47.4396 228.245 50.6123C228.245 52.1325 228.245 53.5535 228.245 53.851C228.278 54.4458 228.048 55.0738 227.62 55.5034C227.39 55.7678 225.121 58.0812 224.76 58.3786C224.233 58.8413 223.576 59.1057 222.885 59.0726H214.369C213.021 59.0726 211.64 58.0151 211.64 56.9575C211.64 56.6931 211.673 53.7849 211.673 53.7849C212.1 54.2806 212.561 54.8755 213.613 54.8755C214.468 54.8755 215.323 54.2145 215.553 53.9501C215.783 53.6857 221.998 47.2083 221.998 47.2083C221.998 47.2083 219.104 44.4983 217.197 43.2094C216.276 42.5815 215.027 43.3747 214.83 44.2009C214.238 46.7787 214.83 50.6783 214.83 50.6783L212.495 48.3319C211.541 47.3735 211.574 45.2254 212.725 44.1017C212.89 43.9035 214.632 41.9867 216.802 41.9867H220.189C222.458 41.9867 224.957 44.267 224.957 44.267C225.154 44.0357 225.286 43.7713 225.318 43.4738C225.318 42.2841 225.286 39.1445 225.286 39.1445C223.576 37.426 223.346 35.6414 224.168 34.8152C225.713 33.2619 226.272 32.7332 226.272 32.7332C226.272 32.7332 226.206 34.6169 228.015 36.4015V36.4015ZM217.328 53.5866C216.474 54.4789 216.342 54.6772 215.553 55.1729H225.154C227.752 55.1729 227.226 53.5535 226.765 52.7273C225.812 51.0419 222.787 47.9353 222.787 47.9353C222.787 47.9353 217.493 53.4214 217.328 53.5866V53.5866Z" fill="white"/>
<path d="M206.379 62.3774H204.8C204.8 62.3774 206.477 63.3028 206.477 65.7153V73.4156C206.477 78.4058 210.587 83.0326 215.585 83.0326H219.761C222.26 83.0326 223.148 82.4377 224.66 81.0827C225.219 80.587 225.943 79.7608 226.206 79.4634C227.06 78.4719 228.014 77.6788 228.014 75.101V72.5893C228.014 70.4082 226.765 69.5159 226.14 68.8879C225.745 68.4914 224.693 67.4669 224.693 67.4669V72.6224C224.693 72.6224 225.745 73.746 226.206 74.1096C228.376 75.8281 226.666 78.8024 224.627 78.8024C224.233 78.8024 216.045 78.8024 215.454 78.8024C212.1 78.8685 207.529 75.8611 207.529 70.7717V66.6076C207.562 62.3774 206.379 62.3774 206.379 62.3774V62.3774Z" fill="white"/>
<path d="M216.44 71.7632C216.44 72.6555 213.645 75.0019 213.48 75.1341C213.283 74.1757 212.56 73.1512 210.488 71.0361L213.546 67.9626C215.585 70.0116 216.44 70.4743 216.44 71.7632V71.7632Z" fill="white"/>
<path d="M184.382 105.968H179.449C177.904 105.968 178.036 104.679 177.871 103.589V96.5163C177.871 96.5163 178.956 96.4833 180.173 96.4833C181.521 96.4833 183.231 96.285 184.875 97.2103C184.02 95.3927 182.179 94.269 180.173 94.3351H177.904V92.0548C177.904 92.0548 177.904 90.0719 177.411 89.5101H180.666C183.461 89.5101 185.631 89.477 187.9 90.9642C187.9 90.9642 187.472 87.2297 182.047 87.2297H171.459C171.459 87.2297 173.301 88.8161 173.235 92.0217L173.301 104.911C173.301 108.149 174.583 108.248 174.583 108.248H185.006C187.374 108.248 188.196 106.563 188.196 105.638L188.229 104.415C188.229 104.415 187.472 105.968 184.382 105.968V105.968Z" fill="white"/>
<path d="M212.133 104.877V95.855C212.133 92.3519 209.305 91.4265 207.168 91.4265C204.373 91.4265 203.518 93.7729 203.157 94.5991C202.532 92.418 200.329 91.4265 198.553 91.4265C195.167 91.4265 194.312 94.6652 194.312 94.6652C194.312 94.6652 194.246 91.5257 191.517 91.5257H188.854C188.854 91.5257 190.399 92.1536 190.399 94.8635V104.877C190.399 108.182 191.714 108.248 191.714 108.248H196.12C195.068 107.455 194.443 106.199 194.443 104.844V95.9541C194.509 95.5575 195.167 94.2356 197.041 94.2356C198.126 94.2356 199.31 95.3593 199.277 96.6151V104.877C199.277 108.215 200.592 108.248 200.592 108.248H204.998C203.946 107.422 203.321 106.199 203.321 104.844V95.9541C203.748 94.6652 205.129 93.9382 206.445 94.3678C207.431 94.6983 208.122 95.5906 208.154 96.6481C208.154 96.6481 208.154 104.183 208.154 104.877C208.187 108.248 209.47 108.215 209.47 108.215C211.771 108.215 213.876 108.215 213.876 108.215C212.791 107.422 212.166 106.199 212.133 104.877Z" fill="white"/>
<path d="M219.827 104.877C219.827 106.199 220.451 107.455 221.503 108.248C221.503 108.248 219.399 108.248 217.097 108.248C217.097 108.248 215.749 108.281 215.749 104.911V94.8308C215.749 92.1869 214.237 91.4929 214.237 91.4929H216.9C217.854 91.4929 219.794 91.4929 219.794 95.2274V104.811L219.827 104.877Z" fill="white"/>
<path d="M233.374 92.782C233.374 92.782 232.946 91.5922 231.138 91.5922C228.376 91.5922 227.718 94.897 227.718 94.897C227.488 92.2862 226.798 91.5261 224.858 91.5261H222.194C222.194 91.5261 223.74 92.154 223.74 94.864V104.878C223.74 108.182 225.055 108.249 225.055 108.249H229.461C228.409 107.455 227.784 106.2 227.784 104.878V96.6486C227.883 95.9546 228.277 95.3267 228.869 94.9631C230.349 93.9717 232.289 94.2691 233.439 95.6241L233.374 92.782Z" fill="white"/>
<path d="M253.859 93.3764C254.779 93.3764 255.667 93.6078 256.456 94.0374V91.5257H252.774V87.6921C251.985 88.948 250.965 90.0716 249.814 91.03C248.565 92.0545 245.935 93.3434 245.935 93.3434L248.729 93.3764V105.009C248.729 108.248 250.078 108.248 250.078 108.248C252.478 108.248 254.451 108.248 254.451 108.248C253.398 107.488 252.774 106.265 252.741 104.976V93.3764C253.925 93.3764 253.135 93.3764 253.859 93.3764V93.3764Z" fill="white"/>
<path d="M267.208 98.4331C264.742 101.011 262.802 100.614 261.257 102.531C261.257 102.531 261.52 105.109 263.46 106.001C264.117 106.299 266.847 107.29 268.589 104.25V106.959C268.589 106.959 267.471 108.281 263.887 108.281C259.58 108.281 256.621 104.877 256.621 100.251C256.621 95.69 259.021 91.4929 263.591 91.4599C268.03 91.3938 270.463 95.0291 267.208 98.4331ZM264.512 97.3755C265.235 96.0205 265.827 92.5835 263.328 92.7818C260.435 93.0131 260.994 100.713 260.994 100.713C261.947 99.6558 263.394 99.4245 264.512 97.3755V97.3755Z" fill="white"/>
<path d="M217.788 90.1711C218.906 90.138 219.76 89.2127 219.76 88.1221C219.728 86.9984 218.807 86.1392 217.722 86.1392C216.637 86.1722 215.749 87.0645 215.749 88.1551C215.749 89.2788 216.67 90.1711 217.788 90.1711Z" fill="white"/>
<path d="M237.944 106.331C236.957 106.331 236.234 105.274 236.234 104.216C236.234 100.052 239.621 99.4574 240.541 98.3668V105.406C240.114 105.737 239.719 106.331 237.944 106.331V106.331ZM240.541 96.7474C239.522 98.532 231.565 98.9286 232.781 105.109C233.275 107.554 234.886 108.281 236.924 108.281C238.897 108.281 240.114 107.257 240.607 106.265C240.903 108.116 241.856 108.248 241.856 108.248C244.158 108.248 246.262 108.248 246.262 108.248C245.21 107.455 244.553 106.232 244.553 104.91V95.4916C244.553 93.2443 242.087 91.4927 239.456 91.4927C237.977 91.4597 236.563 91.8893 235.346 92.7155V95.6238C235.346 95.6238 236.267 93.3104 238.536 93.3104C240.771 93.3104 240.936 94.434 240.936 94.9959C240.969 95.5907 240.87 96.2186 240.541 96.7474V96.7474Z" fill="white"/>
<path d="M276.941 103.687C276.974 104.877 275.921 106.43 273.686 106.43C271.384 106.43 270.463 104.084 270.463 104.084V107.058C271.713 107.852 273.159 108.248 274.639 108.248C277.631 108.248 280.689 105.968 280.623 102.762C280.59 101.705 280.229 100.68 279.604 99.8538C278.585 98.4988 276.743 97.5404 275.297 96.6481C274.475 96.1524 274.047 95.2271 274.047 94.9296C274.014 94.3678 274.31 93.2442 276.513 93.2442C278.683 93.2442 279.637 95.5575 279.637 95.5575V92.7484C278.42 91.8892 276.941 91.4265 275.428 91.4265C272.798 91.4265 270.397 93.1781 270.463 95.4254C270.496 97.4082 271.318 98.6641 272.929 99.8869C273.653 100.416 274.409 100.878 275.198 101.308C276.448 102.002 276.908 102.861 276.941 103.687V103.687Z" fill="white"/>
</svg>
