<svg width="452" height="150" viewBox="0 0 452 150" fill="none" xmlns="http://www.w3.org/2000/svg">
<path d="M322.55 26.7308C322.55 19.6154 319.661 13.0769 314.655 7.88461C309.649 2.88462 302.717 0 295.785 0C284.04 0 267.288 6.73077 226.275 6.73077C185.262 6.73077 167.547 0 156.764 0C149.64 0 142.901 2.69231 137.895 7.88461C132.696 12.8846 130 19.6154 130 26.7308C130 32.8846 135.776 54.4231 135.776 75C135.776 95.5769 130 117.308 130 123.269C130 130.385 132.696 137.115 137.895 142.115C142.901 147.115 149.64 150 156.764 150C167.547 150 185.069 143.269 226.275 143.269C267.48 143.269 284.04 150 295.785 150C310.611 150 322.55 138.077 322.55 123.269C322.55 117.115 316.773 95.9615 316.773 75C316.773 54.0385 322.55 32.8846 322.55 26.7308Z" fill="white"/>
<path d="M226.275 135.769C253.424 135.769 284.04 144.423 295.785 144.423C307.531 144.423 316.966 135 316.966 123.269C316.966 111.539 309.071 89.231 309.071 75.0002C309.071 60.7694 316.966 38.4618 316.966 26.731C316.966 15.0002 307.146 5.57715 295.785 5.57715C284.425 5.57715 253.424 14.231 226.275 14.231C199.125 14.231 168.51 5.57715 156.764 5.57715C145.019 5.57715 135.584 15.0002 135.584 26.731C135.584 38.2694 143.479 60.5771 143.479 75.0002C143.479 89.4233 135.584 111.731 135.584 123.269C135.584 134.808 145.019 144.423 156.764 144.423C168.51 144.423 199.125 135.769 226.275 135.769Z" fill="#11817A"/>
<path d="M172.168 75.7692C172.168 75.7692 170.05 75.5768 168.317 75.5768V88.8461C168.317 89.423 168.51 89.6153 168.895 89.8076H165.429C165.814 89.6153 166.007 89.2307 166.007 88.8461V75.5768C164.274 75.5768 162.156 75.7692 162.156 75.7692C161.578 75.7692 161.193 76.3461 161 76.7307V74.8076H173.131V76.7307C173.131 76.3461 172.746 75.7692 172.168 75.7692Z" fill="white"/>
<path d="M186.61 75.3842C183.144 75.3842 180.641 77.8842 180.641 81.9227C180.641 86.7304 183.914 89.0381 186.61 89.0381C190.076 89.0381 192.386 86.5381 192.386 82.4996C192.579 78.2689 190.076 75.3842 186.61 75.3842ZM195.082 82.4996C194.889 87.6919 190.268 90.1919 186.417 90.1919C181.988 90.1919 177.945 86.7304 178.137 82.115C178.33 78.4612 181.411 74.4227 186.995 74.615C190.846 74.615 195.274 77.3073 195.082 82.4996Z" fill="white"/>
<path d="M205.672 74.6152C205.287 74.8075 204.902 75.1922 204.902 75.5768V84.9998C204.902 86.5383 205.479 88.846 208.753 88.846C211.834 88.846 212.796 86.9229 212.796 84.9998V75.5768C212.796 74.9998 212.604 74.8075 212.219 74.6152H214.722C214.337 74.8075 214.144 75.1922 214.144 75.5768V84.9998C214.144 88.6537 211.641 89.9998 208.753 89.9998C206.25 89.9998 202.976 88.846 202.976 84.9998V75.5768C202.976 74.9998 202.591 74.8075 202.206 74.6152H205.672Z" fill="white"/>
<path d="M226.66 75.5771C225.698 75.5771 224.927 75.5771 224.927 75.5771V81.731C224.927 81.731 225.698 81.731 226.275 81.731C228.008 81.731 229.741 80.7694 229.741 78.4617C229.741 77.5002 229.163 75.5771 226.66 75.5771ZM232.052 78.4617C232.052 80.9617 229.741 82.1156 228.393 82.3079C229.548 82.5002 230.319 83.4617 230.704 84.0387C230.704 84.0387 233.207 88.0771 234.17 89.231C234.747 89.8079 235.71 90.1925 235.71 90.1925H233.399C232.437 90.1925 231.859 89.6156 231.474 89.231C230.319 87.5002 229.548 86.1541 228.586 85.0002C228.008 84.0387 227.43 83.0771 226.275 83.0771C225.89 83.0771 224.927 83.0771 224.927 83.0771V89.231C224.927 89.8079 225.312 90.0002 225.505 90.1925H222.039C222.424 90.0002 222.617 89.6156 222.617 89.231V75.9617C222.617 75.3848 222.424 75.1925 222.039 75.0002H226.468C231.089 74.6156 232.052 77.1156 232.052 78.4617Z" fill="white"/>
<path d="M245.53 74.6152C245.145 74.8075 244.953 75.1922 244.953 75.5768V88.846C244.953 89.4229 245.145 89.6152 245.53 89.8075H242.064C242.45 89.6152 242.642 89.2306 242.642 88.846V75.5768C242.642 74.9998 242.45 74.8075 242.064 74.6152H245.53Z" fill="white"/>
<path d="M259.586 80.7695C261.704 81.9233 264.014 82.5003 264.014 85.5772C264.014 88.4618 261.319 90.1926 259.008 90.1926C257.083 90.1926 255.542 89.4233 254.772 88.8464V85.5772C255.35 87.1156 256.505 89.231 259.008 89.231C261.511 89.231 262.089 87.308 262.089 86.1541C262.089 84.0387 260.356 83.6541 258.238 82.5003C255.927 81.3464 254.965 80.1926 254.965 78.4618C254.965 75.7695 257.468 74.4233 259.778 74.4233C260.548 74.4233 262.089 74.6156 263.052 75.1926L263.244 78.0772C263.052 76.9233 261.704 75.1926 259.586 75.1926C257.66 75.1926 257.083 76.5387 257.083 77.5003C256.505 79.231 257.468 79.808 259.586 80.7695Z" fill="white"/>
<path d="M281.152 86.1537L286.158 74.6152H289.046C288.661 74.8075 288.468 75.1922 288.468 75.5768V88.846C288.468 89.4229 288.661 89.6152 289.046 89.8075H285.58C285.965 89.6152 286.158 89.2306 286.158 88.846V77.3075C286.158 77.1152 286.158 76.9229 286.158 76.9229L285.965 77.4998L280.189 90.3845L274.605 77.8845L274.412 77.3075C274.412 77.3075 274.412 77.6922 274.412 77.8845V89.0383C274.412 89.6152 274.605 89.8075 274.99 89.9998H272.679C273.064 89.8075 273.257 89.4229 273.257 89.0383V75.7691C273.257 75.3845 272.872 74.9999 272.487 74.8075H275.568L281.152 86.1537Z" fill="white"/>
<path d="M186.416 108.654C186.416 111.923 183.143 112.115 181.602 112.115C181.025 112.115 180.447 112.115 180.447 112.115C180.447 109.423 180.447 105.577 180.447 105.577C180.447 105.577 181.602 105.577 182.373 105.577C184.298 105.577 186.416 106.154 186.416 108.654ZM182.18 97.8843H177.751C178.137 98.0766 178.329 98.4612 178.329 98.8458V112.115C178.329 112.692 178.137 112.884 177.751 113.077H182.758C187.764 113.077 188.919 110.577 188.919 108.846C188.919 105.192 184.298 104.807 184.298 104.807C184.298 104.807 187.379 103.846 187.379 101.346C187.379 98.4612 183.721 97.8843 182.18 97.8843ZM185.261 101.538C185.261 104.423 182.565 104.615 181.602 104.615C181.025 104.615 180.64 104.615 180.64 104.615C180.64 102.884 180.64 99.0381 180.64 99.0381C180.64 99.0381 181.217 99.0381 182.18 99.0381C183.528 98.8458 185.261 99.615 185.261 101.538Z" fill="white"/>
<path d="M203.746 98.6533C200.28 98.6533 197.777 101.153 197.777 105.192C197.777 109.999 201.051 112.307 203.746 112.307C207.212 112.307 209.523 109.807 209.523 105.769C209.715 101.538 207.212 98.6533 203.746 98.6533ZM212.219 105.769C212.026 110.961 207.405 113.461 203.554 113.461C199.125 113.461 195.082 109.999 195.274 105.384C195.467 101.73 198.548 97.6917 204.131 97.8841C207.982 97.8841 212.411 100.576 212.219 105.769Z" fill="white"/>
<path d="M221.076 107.692H226.275C225.119 104.808 223.579 101.346 223.579 101.346C223.579 101.346 222.039 105.192 221.076 107.692ZM224.349 97.6924C224.349 97.6924 230.318 111.346 230.703 112.115C230.896 112.5 231.089 112.885 231.859 113.269H227.623C228.2 113.077 228.393 112.692 228.2 112.115C228.008 111.923 227.43 110.385 226.66 108.654H220.691C219.921 110.385 219.343 111.731 219.15 112.115C218.958 112.692 218.958 113.077 219.728 113.269H216.84C217.417 112.885 217.61 112.692 217.995 112.115C218.38 111.154 224.349 97.6924 224.349 97.6924Z" fill="white"/>
<path d="M243.604 98.8462C242.642 98.8462 241.871 98.8462 241.871 98.8462V105C241.871 105 242.642 105 243.219 105C244.952 105 246.685 104.038 246.685 101.731C246.685 100.769 246.108 98.8462 243.604 98.8462ZM249.188 101.731C249.188 104.231 246.878 105.385 245.53 105.577C246.685 105.769 247.455 106.731 247.841 107.308C247.841 107.308 250.344 111.346 251.306 112.5C251.884 113.077 252.847 113.462 252.847 113.462H250.536C249.573 113.462 248.996 112.885 248.611 112.5C247.455 110.769 246.685 109.423 245.722 108.269C245.145 107.308 244.567 106.346 243.412 106.346C243.027 106.346 242.064 106.346 242.064 106.346V112.5C242.064 113.077 242.449 113.269 242.642 113.462H239.176C239.561 113.269 239.753 112.885 239.753 112.5V99.2308C239.753 98.6539 239.561 98.4616 239.176 98.2692H243.604C248.033 97.8846 249.188 100.385 249.188 101.731Z" fill="white"/>
<path d="M259.586 97.8843C259.971 98.0766 260.164 98.4612 260.164 98.8458V112.115C260.164 112.692 259.971 112.884 259.586 113.077H264.977C271.524 113.077 274.22 108.846 274.22 105.192C274.22 103.269 273.064 97.8843 265.362 97.8843H259.586ZM271.717 105.384C271.717 108.654 270.176 112.307 264.977 112.307C264.207 112.307 263.244 112.307 262.282 112.307V99.0381C262.859 99.0381 264.4 99.0381 265.17 99.0381C270.176 98.8458 271.717 102.5 271.717 105.384Z" fill="white"/>
<path d="M208.56 52.8841C206.442 55.961 205.672 57.4995 204.517 59.8072C203.939 60.961 202.784 64.038 203.554 66.538C204.902 66.9226 206.827 66.1534 208.56 63.6534C209.908 61.3457 209.716 56.9226 208.56 52.8841ZM284.04 40.3841C283.077 41.1534 281.922 42.4995 281.537 44.038C281.344 44.8072 281.152 45.961 281.344 47.1149C283.655 45.961 285.773 44.2303 286.35 41.7303C286.543 41.1534 286.543 40.1918 285.58 40.1918C284.81 40.1918 284.425 40.1918 284.04 40.3841ZM283.462 38.461C285.195 37.4995 287.313 37.6918 288.083 38.2687C289.624 39.6149 290.009 39.9995 289.816 42.6918C289.624 43.8457 287.313 47.1149 281.537 48.8457C281.537 49.8072 282.499 50.7687 283.847 50.961C286.928 51.3457 290.394 49.8072 290.972 49.6149C291.549 49.4226 291.357 49.8072 291.164 49.9995C288.854 52.1149 285.58 52.8841 283.077 52.4995C279.419 51.9226 279.034 50.7687 278.263 49.6149C278.263 49.6149 278.071 49.4226 277.686 49.4226C277.301 49.4226 276.145 49.4226 275.76 49.2303C274.22 49.038 273.642 48.2687 273.45 47.6918C273.45 47.4995 273.257 47.1149 273.835 47.4995C274.605 48.0764 275.183 48.2687 275.76 48.2687C276.53 48.4611 277.301 48.2687 277.686 48.0764C277.493 46.538 277.493 44.8072 278.071 43.6534C278.648 42.3072 280.189 40.1918 283.462 38.461ZM182.951 33.8457C183.144 33.8457 183.336 33.8457 183.721 33.8457C184.107 33.8457 184.299 34.2303 184.492 34.4226C184.684 34.6149 184.684 35.1918 184.492 35.5764C184.299 35.961 184.107 36.3457 183.721 36.538C183.144 36.9226 182.374 37.6918 182.374 37.8841C182.181 38.0764 182.181 38.461 181.796 38.2687C181.218 38.2687 181.218 37.6918 180.833 37.3072C180.448 37.1149 180.641 36.7303 180.833 36.3457C181.026 35.7687 182.566 34.038 182.951 33.8457ZM239.176 33.6534C239.561 33.2687 238.791 35.1918 239.368 37.1149C239.368 37.3072 238.983 37.6918 238.983 37.6918C237.635 39.2303 236.673 40.7687 236.095 42.8841C235.902 43.461 235.902 43.6534 236.288 43.2687C236.673 42.6918 237.443 41.9226 238.02 41.3457C241.679 37.3072 243.99 36.538 245.53 37.6918C247.648 39.4226 246.108 42.4995 245.53 43.8457C245.337 44.038 245.53 44.038 245.915 43.8457C246.3 43.6534 248.803 42.3072 250.344 41.1534C251.691 40.1918 253.424 39.038 254.002 38.461C254.58 37.8841 254.58 39.4226 254.387 40.1918C254.195 41.1534 254.195 41.538 253.81 41.7303C252.847 42.6918 250.729 44.4226 250.344 45.961C249.959 48.461 251.114 49.038 252.077 49.038C254.195 49.2303 256.313 46.7303 256.505 44.9995C256.505 44.8072 256.12 44.6149 255.542 44.2303C254.195 43.2687 254.002 41.9226 254.965 40.7687C255.35 40.3841 256.505 39.4226 257.468 40.3841C258.238 40.961 259.008 41.7303 259.008 42.3072C259.008 42.8841 259.008 43.8457 259.393 43.8457C260.934 43.8457 263.822 42.6918 265.17 41.9226C268.058 40.3841 270.176 39.038 271.524 38.2687C272.294 37.8841 272.102 38.4611 271.909 38.8457C271.717 39.6149 271.139 39.9995 270.754 40.5764C270.561 40.7687 270.369 41.3457 270.946 40.961C272.679 40.3841 275.953 38.8457 278.071 38.8457C279.034 38.8457 278.841 39.038 278.456 39.2303C277.493 39.6149 277.108 41.538 276.338 41.9226C275.568 42.3072 274.99 42.1149 274.22 42.1149C273.257 42.3072 271.909 42.6918 271.139 43.0764C268.636 44.6149 267.481 46.1534 266.325 47.8841C265.17 49.8072 263.244 54.038 263.052 54.4226C262.667 55.5764 262.474 55.3841 262.282 55.1918C261.126 54.2303 262.474 50.3841 263.63 47.4995C264.4 45.9611 265.17 43.8457 266.325 42.1149C266.71 41.3457 266.518 41.7303 266.133 41.9226C265.748 42.1149 263.052 43.8457 262.089 44.4226C260.934 44.8072 259.586 45.3841 258.816 45.3841C258.238 45.3841 258.238 46.3457 257.468 47.6918C255.928 50.5764 253.424 52.8841 251.306 52.8841C249.381 52.8841 247.455 51.538 246.878 49.038C246.493 47.1149 247.648 45.5764 248.418 43.8457C248.803 43.0764 248.611 43.2687 248.418 43.2687C244.952 44.038 240.909 48.4611 235.902 48.4611C235.132 48.4611 235.132 48.2687 235.517 48.0764C237.058 47.6918 241.679 45.7687 243.219 42.3072C243.604 41.3457 243.219 39.9995 242.257 39.9995C241.294 40.1918 239.753 40.1918 237.443 42.4995C235.902 44.8072 234.555 47.4995 233.977 49.9995C233.592 51.9226 232.629 55.1918 232.244 57.8841C232.051 59.038 231.859 62.8841 231.859 63.2687C231.859 63.6534 231.474 63.6534 231.281 63.2687C230.511 61.538 230.318 60.3841 230.126 58.0764C230.126 57.4995 230.126 54.6149 230.511 53.0764C231.089 50.5764 230.896 49.038 230.896 49.038C230.896 48.8457 230.704 48.8457 230.511 49.2303C230.318 49.4226 228.778 51.538 227.238 51.7303C226.66 51.9226 225.89 51.7303 225.312 50.961C224.735 49.9995 224.542 47.4995 224.542 47.3072C224.542 46.7303 224.349 47.1149 224.157 47.1149C223.964 47.4995 223.194 48.461 223.002 48.8457C222.424 49.6149 221.269 51.1534 219.536 51.538C219.151 51.7303 217.61 51.538 216.647 49.8072C215.685 48.2687 216.262 46.1534 217.033 44.8072C217.225 44.6149 217.225 44.2303 216.84 44.4226C216.262 44.8072 214.915 45.7687 213.759 46.7303C211.834 48.2687 210.293 49.8072 210.293 49.9995C210.293 50.3841 210.871 51.538 211.256 52.6918C213.374 58.0764 214.337 63.461 209.331 66.9226C207.79 67.8841 206.057 68.4611 203.939 68.0764C202.591 67.8841 201.821 66.3457 201.821 65.5764C201.821 63.6534 202.014 61.7303 202.206 60.9611C203.362 58.0764 204.902 55.9611 205.865 54.2303C206.827 52.6918 207.79 51.7303 207.983 51.1534C207.983 50.5764 207.598 49.4226 207.405 48.8457C206.635 46.538 206.635 44.8072 206.635 44.2303C206.635 43.6534 206.25 43.8457 206.057 44.2303C205.672 44.9995 204.902 46.7303 204.132 48.0764C203.362 49.4226 202.014 50.5764 200.088 50.3841C198.74 50.3841 198.355 48.8457 198.355 48.4611C198.355 47.4995 198.355 45.961 198.163 45.7687C198.163 44.9995 197.778 44.4226 197.2 44.4226C196.43 44.4226 196.237 44.6149 195.66 44.9995C194.889 45.7687 194.119 46.9226 193.349 48.2687C192.386 49.8072 191.809 51.1534 191.423 51.7303C190.846 52.8841 190.846 53.6534 190.076 53.6534C189.305 53.6534 189.113 51.9226 189.113 51.1534C189.113 49.038 189.691 47.3072 190.076 45.3841C190.268 44.8072 190.268 44.8072 190.076 44.4226C189.691 44.2303 189.691 44.4226 189.305 44.8072C188.728 45.5764 187.958 47.1149 187.958 47.3072C187.187 48.8457 186.417 50.1918 185.069 50.961C184.299 51.3457 183.721 51.3457 182.759 51.3457C182.374 51.3457 181.989 50.7687 181.603 50.3841C180.448 48.2687 180.063 46.3457 179.678 45.3841C179.485 44.8072 179.1 44.8072 178.908 44.9995C177.945 45.3841 177.56 46.3457 176.79 46.9226C175.442 47.6918 173.709 48.0764 171.976 47.6918C170.243 47.3072 169.473 46.538 169.28 45.961C169.088 45.3841 169.665 45.7687 169.665 45.7687C171.206 46.7303 171.976 46.7303 172.361 46.7303C173.131 46.7303 175.057 46.3457 176.212 44.9995C176.79 44.2303 177.752 41.9226 178.908 41.1534C180.063 40.3841 180.833 40.1918 181.603 41.538C181.989 42.1149 181.989 42.6918 181.989 43.0764C181.989 43.461 182.374 44.2303 182.374 44.6149C182.374 45.9611 182.181 46.538 182.374 47.4995C182.374 48.4611 182.374 49.038 183.144 49.8072C183.529 50.3841 183.914 49.9995 184.492 49.6149C185.262 49.4226 186.61 47.4995 187.958 44.8072C188.343 44.038 189.305 42.3072 190.461 40.1918C190.653 39.8072 191.038 39.4226 191.231 39.2303C191.616 39.038 192.194 39.038 192.386 39.4226C192.964 39.9995 193.349 40.7687 193.156 41.7303C193.156 42.1149 192.964 43.8457 193.156 44.8072C193.156 45.1918 193.349 45.1918 193.542 44.9995C194.312 44.2303 195.467 42.8841 195.852 42.3072C196.237 41.9226 197.2 41.3457 197.97 41.1534C198.74 41.1534 199.318 41.3457 199.896 41.9226C201.051 43.0764 200.666 44.4226 201.244 46.538C201.436 46.9226 201.629 46.9226 201.821 46.9226C202.206 46.9226 202.976 46.538 203.554 45.7687C204.324 44.8072 204.902 43.6534 205.094 43.0764C205.48 42.1149 206.057 40.9611 206.25 40.7687C206.442 40.5764 207.02 37.8841 207.598 37.1149C208.368 35.7687 209.138 34.8072 210.486 34.6149C212.411 34.2303 213.759 35.1918 214.529 35.9611C215.107 36.7303 215.107 38.4611 214.337 39.8072C213.952 40.3841 213.374 40.7687 212.989 41.1534C212.604 41.538 212.411 41.7303 212.026 42.1149C211.641 42.4995 211.449 42.1149 211.641 41.538C211.834 41.1534 212.411 40.5764 212.989 39.9995C213.567 39.4226 213.567 38.6534 213.567 38.2687C213.567 37.6918 213.759 37.1149 212.219 37.3072C211.449 37.3072 210.293 37.8841 209.138 40.1918C208.175 42.1149 208.368 44.8072 208.56 46.7303C208.945 47.1149 208.945 48.2687 209.331 48.8457C209.331 49.038 209.523 49.038 209.716 48.8457C210.486 48.2687 212.411 46.3457 213.567 45.1918C216.455 42.4995 218.188 40.9611 220.691 39.6149C222.039 38.8457 223.002 38.4611 224.542 37.8841C225.697 37.4995 226.853 36.9226 229.163 36.9226C229.548 36.9226 229.356 37.4995 229.163 37.6918C228.971 37.8841 228.393 38.2687 228.393 38.8457C228.393 39.2303 228.2 39.8072 227.43 39.8072C226.467 39.8072 225.312 39.6149 224.927 39.8072C223.387 40.3841 220.691 41.538 219.536 42.6918C218.188 44.2303 218.188 45.1918 218.573 46.538C218.958 47.8841 220.306 47.6918 221.076 47.4995C222.231 46.538 223.194 45.1918 223.772 44.4226L225.505 42.1149C225.697 41.7303 226.082 41.538 226.082 41.9226C226.275 42.6918 226.275 43.2687 226.275 45.5764C226.275 46.1534 226.467 46.7303 226.467 47.3072C226.467 48.0764 228.008 48.8457 229.356 47.6918C230.318 46.9226 231.089 45.3841 231.666 44.4226C234.555 41.3457 236.095 36.3457 239.176 33.6534ZM171.783 24.9995C172.169 24.9995 172.554 24.9995 173.324 24.9995C173.709 24.9995 174.287 25.7687 174.287 25.9611C174.479 28.8457 171.976 30.961 171.206 31.7303C170.628 32.3072 169.858 33.2687 169.665 33.461C169.088 34.4226 168.895 33.8457 169.088 33.0764C169.28 32.4995 169.665 32.1149 170.243 31.3457C170.821 30.5764 171.783 29.4226 171.976 28.8457C172.361 27.8841 172.554 27.4995 172.746 26.7303C172.554 26.538 172.554 26.538 171.976 26.538C171.398 26.538 171.013 26.7303 169.088 28.8457C167.74 30.3841 166.199 33.461 166.585 37.1149C166.777 39.6149 166.97 41.3457 168.125 44.2303C169.473 47.3072 170.821 49.8072 170.628 52.4995C170.436 56.1534 167.162 58.8457 165.814 59.4226C164.467 60.1918 163.696 59.8072 163.311 59.4226C162.541 58.8457 161.771 58.2687 161.578 56.9226C161.386 55.9611 161.963 54.6149 162.348 53.461C162.926 52.1149 163.504 51.3457 164.274 50.7687C164.852 50.3841 164.659 50.9611 164.659 51.3457C164.659 51.538 163.696 53.6534 163.504 54.9995C163.311 56.3457 163.311 56.1534 163.504 57.1149C164.081 57.3072 164.852 57.3072 165.237 57.1149C165.814 56.7303 166.97 54.9995 167.162 53.8457C167.547 51.538 167.355 50.5764 166.97 48.6534C166.199 45.1918 164.081 41.9226 163.311 39.038C162.734 36.9226 163.119 34.8072 163.696 32.8841C164.081 31.538 164.659 30.5764 166.199 29.038C167.547 27.3072 169.28 25.3841 171.783 24.9995Z" fill="white"/>
</svg>
