<svg width="452" height="150" viewBox="0 0 452 150" fill="none" xmlns="http://www.w3.org/2000/svg">
<path d="M272.551 98.0622H249.719L232.939 63.0698C223.788 68.0474 218.542 79.5824 209.243 87.2128C204.504 91.0876 198.96 94.5451 192.074 96.8998C188.945 97.943 183.639 99.3141 181.642 99.5227C180.808 99.6121 180.212 99.5823 180.092 99.2544C180.003 99.016 180.241 98.8372 181.106 98.4199C182.119 97.943 186.322 96.1844 188.945 94.3662C192.223 92.0712 194.101 89.5973 194.25 87.6897C193.356 84.5004 186.918 77.4662 193.505 64.5005C195.86 59.8507 197.916 56.5124 199.377 53.1443C201.046 49.2696 202.238 43.8448 202.656 39.7912C202.685 39.5527 202.715 39.5527 202.864 39.7018C206.053 42.9506 218.453 55.7077 216.664 68.4051C220.778 66.8254 227.931 61.9968 231.24 59.4334C234.727 56.7211 236.992 53.8895 240.688 53.8299C243.997 53.7703 244.265 55.35 246.918 55.7077C247.573 55.7971 248.527 55.6779 249.034 55.4096C249.243 55.3202 249.183 55.0817 248.885 55.0221C245.308 54.1876 244.444 51.2666 239.794 51.2666C235.621 51.2666 232.313 55.0817 229.928 56.6615L218.214 32.2204C213.237 22.0267 214.727 14.605 225.487 0L272.551 98.0622Z" fill="#D8B464"/>
<path d="M316.843 148.375L308.855 138.867C313.058 137.913 315.621 135.499 315.621 131.297C315.621 126.557 311.597 124.173 306.5 124.173H290.554V148.375H294.787V139.225H304.265L311.568 148.375H316.843V148.375ZM294.787 127.928H306.62C309.541 127.928 311.269 129.3 311.269 131.595C311.269 133.949 309.451 135.469 306.62 135.469H294.787V127.928Z" fill="#D8B464"/>
<path d="M146.65 124.173L134.162 148.375H138.96L141.613 142.981H155.831L158.483 148.375H163.372L150.883 124.173H146.65V124.173ZM143.461 139.225L148.707 128.584L153.953 139.225H143.461Z" fill="#D8B464"/>
<path d="M185.756 127.362C189.75 127.362 193.029 128.852 194.698 131.505L198.126 129.21C195.741 125.871 191.509 123.546 185.786 123.546C176.516 123.546 171.181 129.597 171.181 136.303C171.181 142.98 176.516 149.031 185.786 149.031C191.539 149.031 195.741 146.706 198.126 143.367L194.698 141.043C193.029 143.666 189.75 145.186 185.756 145.186C179.527 145.186 175.503 141.698 175.503 136.274C175.503 130.849 179.527 127.362 185.756 127.362Z" fill="#D8B464"/>
<path d="M224.175 127.362C228.14 127.362 231.448 128.852 233.117 131.505L236.545 129.21C234.16 125.871 229.928 123.546 224.205 123.546C214.935 123.546 209.6 129.597 209.6 136.303C209.6 142.98 214.935 149.031 224.205 149.031C229.928 149.031 234.16 146.706 236.545 143.367L233.117 141.072C231.448 143.695 228.169 145.215 224.175 145.215C217.946 145.215 213.922 141.728 213.922 136.303C213.922 130.879 217.946 127.362 224.175 127.362Z" fill="#D8B464"/>
<path d="M262.596 123.546C253.326 123.546 247.991 129.597 247.991 136.303C247.991 142.98 253.326 149.031 262.596 149.031C271.865 149.031 277.201 142.98 277.201 136.303C277.201 129.597 271.895 123.546 262.596 123.546ZM262.596 145.245C256.366 145.245 252.342 141.728 252.342 136.274C252.342 130.819 256.366 127.302 262.596 127.302C268.825 127.302 272.849 130.819 272.849 136.274C272.879 141.728 268.855 145.245 262.596 145.245Z" fill="#D8B464"/>
</svg>
