<svg width="452" height="150" viewBox="0 0 452 150" fill="none" xmlns="http://www.w3.org/2000/svg">
<path d="M276.575 98.6163C276.575 98.6163 285.126 101 296.046 101C307.685 101 313.072 99.6999 313.072 99.6999V91.033C313.072 91.033 307.253 92.1891 299.135 92.1891C292.023 92.1891 287.639 91.2495 287.639 91.2495V78.9727H309.698V70.3059H287.639V58.6066C287.639 58.6066 291.95 57.8115 298.417 57.8115C305.674 57.8115 312.211 58.9673 312.211 58.9673V50.2282C312.211 50.2282 306.464 49 297.123 49C284.694 49 276.575 51.2406 276.575 51.2406V98.6163ZM118.938 78.8993C118.65 79.6226 118.292 80.9948 118.076 81.7896C117.861 80.9948 117.502 79.6226 117.215 78.8993L107.442 53.6954C105.79 49.5068 103.204 49 98.4622 49C96.809 49 93.4313 49.217 93.4313 49.217L88.4025 100.278H99.54L101.982 66.0455L112.544 91.9721C113.335 93.9942 114.915 94.789 118.076 94.789C121.237 94.789 122.818 93.9942 123.608 91.9721L134.17 66.0455L136.613 100.278H147.749L142.72 49.217C142.72 49.217 139.343 49 137.691 49C132.949 49 130.363 49.5068 128.709 53.6954L118.938 78.8993ZM63.1839 89.3723C60.8128 90.3116 55.0639 92.1891 50.8258 92.1891C46.2269 92.1891 42.7786 90.6005 42.7786 85.5444C42.7786 81.1394 45.1483 78.612 51.4732 78.3949L63.1839 77.9618V89.3723ZM56.5734 49C46.6582 49 38.8985 51.4562 35.8805 52.9733L38.2519 61.3507C38.2519 61.3507 45.869 58.6066 53.3398 58.6066C59.7347 58.6066 63.0392 60.4113 63.0392 66.7666V70.3786H53.3398C36.8868 70.3786 32 77.9618 32 86.3398C32 97.4608 40.6228 101 48.4543 101C57.5789 101 62.8966 97.1728 63.5425 97.1728C64.0461 97.1728 65.914 99.194 74.2473 99.194V63.806C74.2473 53.1904 67.7101 49 56.5734 49V49ZM189.926 89.3723C187.554 90.3116 181.806 92.1891 177.568 92.1891C172.969 92.1891 169.52 90.6005 169.52 85.5444C169.52 81.1394 171.891 78.612 178.214 78.3949L189.926 77.9618V89.3723ZM183.314 49C173.399 49 165.64 51.4562 162.622 52.9733L164.993 61.3507C164.993 61.3507 172.61 58.6066 180.081 58.6066C186.476 58.6066 189.781 60.4113 189.781 66.7666V70.3786H180.081C163.629 70.3786 158.742 77.9618 158.742 86.3398C158.742 97.4608 167.364 101 175.196 101C184.321 101 189.638 97.1728 190.284 97.1728C190.787 97.1728 192.655 99.194 200.99 99.194V63.806C200.99 53.1904 194.451 49 183.314 49V49ZM359.56 87.5665C356.903 88.8657 351.155 91.033 345.91 91.033C338.292 91.033 337 87.5665 337 79.6226V49.4334H335.347C332.833 49.4334 327.229 49.8667 325.863 50.1564V81.067C325.863 94.5729 329.169 101 342.819 101C353.238 101 359.345 96.9563 359.775 96.9563C359.919 96.9563 363.513 99.194 370.7 99.194V50.1564C369.909 50.0118 364.517 49.4334 361.787 49.4334H359.56V87.5665ZM383.854 99.194C383.854 99.194 390.751 101 400.38 101C409.505 101 421 97.8948 421 85.4735C421 77.3831 415.037 73.917 405.337 70.3786C400.092 68.4283 395.637 66.6948 395.637 63.0834C395.637 61.3507 396.931 57.9566 403.612 57.9566C409.863 57.9566 416.259 60.8448 416.259 60.8448L419.061 52.5399C417.191 51.6008 411.084 49 402.607 49C393.411 49 384.429 53.9118 384.429 63.806C384.429 73.9903 393.626 77.0951 400.81 79.4789C405.697 81.1394 409.792 82.8736 409.792 86.1227C409.792 89.2989 408.068 92.0449 399.805 92.0449C393.051 92.0449 385.866 90.5286 385.866 90.5286L383.854 99.194ZM228.292 58.6781C230.088 58.3174 233.609 57.8115 237.129 57.8115C245.176 57.8115 251.5 62.3617 251.5 74.6405C251.5 86.5568 248.409 92.1891 236.124 92.1891C232.172 92.1891 228.292 91.6114 228.292 91.6114V58.6781ZM237.632 49C231.31 49 222.544 50.0837 217.155 52.0333V99.4829C221.611 100.423 229.946 101 235.765 101C255.595 101 263.283 93.1998 263.283 74.6405C263.283 58.6066 253.51 49 237.632 49" fill="#1B69BC"/>
</svg>
