<svg width="452" height="152" viewBox="0 0 452 152" fill="none" xmlns="http://www.w3.org/2000/svg">
<path d="M148.304 151.018V145.552H142.615V151.018H140.384V138.58H142.615V143.544H148.304V138.58H150.535V151.018" fill="#1E4A6E"/>
<path d="M158.902 140.197C156.559 140.197 155.165 142.149 155.165 144.771C155.165 147.281 156.615 149.344 158.902 149.344C161.244 149.344 162.583 147.336 162.583 144.771C162.639 142.261 161.189 140.197 158.902 140.197ZM158.902 151.241C155.667 151.241 152.934 148.787 152.934 144.771C152.934 140.755 155.723 138.301 158.902 138.301C162.081 138.301 164.87 140.699 164.87 144.771C164.87 148.787 162.081 151.241 158.902 151.241Z" fill="#1E4A6E"/>
<path d="M172.009 140.532V151.018H169.778V140.532H165.873V138.58H175.801L176.08 140.532" fill="#1E4A6E"/>
<path d="M178.534 151.018V138.58H186.231V140.532H180.709V143.544H185.115L185.45 145.496H180.709V149.066H186.398V151.018" fill="#1E4A6E"/>
<path d="M189.41 151.018V138.58H191.585V149.122H196.326L196.605 151.018" fill="#1E4A6E"/>
<path d="M202.462 151.129C200.956 151.129 199.45 150.739 198.167 150.181L198.502 148.229C199.673 148.843 201.29 149.289 202.573 149.289C203.968 149.289 204.972 148.675 204.972 147.616C204.972 146.556 204.302 146.165 202.517 145.608C199.896 144.715 198.613 143.879 198.613 141.982C198.613 139.863 200.398 138.413 202.796 138.413C204.191 138.413 205.474 138.691 206.366 139.138L206.031 141.201C204.916 140.588 203.8 140.253 202.685 140.253C201.458 140.253 200.621 140.922 200.621 141.703C200.621 142.652 201.29 142.986 203.243 143.655C205.864 144.548 206.979 145.44 206.979 147.392C206.979 149.679 205.139 151.129 202.462 151.129Z" fill="#1E4A6E"/>
<path d="M218.636 145.273C217.577 145.83 216.963 146.611 216.963 147.615C216.963 148.786 217.8 149.567 219.138 149.567C220.087 149.567 220.979 149.177 221.704 148.396L218.636 145.273ZM224.493 151.129L222.82 149.511C221.816 150.627 220.477 151.296 218.971 151.296C216.294 151.296 214.844 150.013 214.844 147.894C214.844 146.165 215.959 144.994 217.577 144.157C216.796 143.265 216.405 142.54 216.405 141.424C216.405 139.751 217.633 138.356 219.864 138.356C221.091 138.356 222.206 138.691 223.098 139.137L222.764 141.089C221.816 140.476 220.867 140.141 219.975 140.141C218.971 140.141 218.525 140.699 218.525 141.48L219.585 143.432L222.764 146.723C223.154 145.886 223.377 144.938 223.489 143.767L225.274 144.157C225.051 145.607 224.66 146.89 224.047 148.006L226.724 150.683L224.493 151.129Z" fill="#1E4A6E"/>
<path d="M238.493 140.476H236.875V144.492H238.493C240.11 144.492 241.002 143.767 241.002 142.428C241.002 141.145 240.11 140.476 238.493 140.476ZM241.839 151.129L238.214 146.165H236.875V150.962H234.644V138.524H238.493C241.337 138.524 243.178 139.863 243.178 142.317C243.178 144.157 242.174 145.329 240.556 145.83L244.07 150.571L241.839 151.129Z" fill="#1E4A6E"/>
<path d="M246.636 151.018V138.58H254.389V140.532H248.867V143.544H253.273L253.608 145.496H248.867V149.066H254.556V151.018" fill="#1E4A6E"/>
<path d="M261.248 151.129C259.742 151.129 258.236 150.739 256.954 150.181L257.288 148.229C258.46 148.843 260.077 149.289 261.36 149.289C262.754 149.289 263.758 148.675 263.758 147.616C263.758 146.556 263.089 146.165 261.304 145.608C258.683 144.715 257.4 143.879 257.4 141.982C257.4 139.863 259.185 138.413 261.583 138.413C263.033 138.413 264.26 138.691 265.208 139.138L264.874 141.201C263.758 140.588 262.643 140.253 261.527 140.253C260.3 140.253 259.464 140.922 259.464 141.703C259.464 142.652 260.133 142.986 262.085 143.655C264.706 144.548 265.822 145.44 265.822 147.392C265.822 149.679 263.981 151.129 261.248 151.129Z" fill="#1E4A6E"/>
<path d="M273.631 140.197C271.288 140.197 269.894 142.149 269.894 144.771C269.894 147.281 271.344 149.344 273.631 149.344C275.973 149.344 277.312 147.336 277.312 144.771C277.368 142.261 275.918 140.197 273.631 140.197ZM273.742 151.241C270.563 151.241 267.774 148.787 267.774 144.771C267.774 140.755 270.563 138.301 273.742 138.301C276.977 138.301 279.71 140.699 279.71 144.771C279.71 148.787 276.922 151.241 273.742 151.241Z" fill="#1E4A6E"/>
<path d="M286.125 140.476H284.508V144.492H286.125C287.687 144.492 288.635 143.767 288.635 142.428C288.635 141.145 287.743 140.476 286.125 140.476ZM289.472 151.129L285.846 146.165H284.508V150.962H282.333V138.524H286.181C289.026 138.524 290.866 139.863 290.866 142.317C290.866 144.157 289.862 145.329 288.245 145.83L291.759 150.571L289.472 151.129Z" fill="#1E4A6E"/>
<path d="M298.842 140.532V151.018H296.611V140.532H292.707V138.58H302.635L302.913 140.532" fill="#1E4A6E"/>
<path d="M308.379 151.129C306.873 151.129 305.423 150.739 304.14 150.181L304.475 148.229C305.646 148.843 307.264 149.289 308.546 149.289C309.941 149.289 310.945 148.675 310.945 147.616C310.945 146.556 310.275 146.165 308.491 145.608C305.869 144.715 304.531 143.879 304.531 141.982C304.531 139.863 306.315 138.413 308.714 138.413C310.108 138.413 311.391 138.691 312.283 139.138L311.949 141.201C310.833 140.588 309.718 140.253 308.602 140.253C307.375 140.253 306.538 140.922 306.538 141.703C306.538 142.652 307.208 142.986 309.16 143.655C311.781 144.548 312.897 145.44 312.897 147.392C312.953 149.679 311.112 151.129 308.379 151.129Z" fill="#1E4A6E"/>
<path d="M223.935 0.703613C201.904 0.703613 185.617 14.759 185.617 29.8183C185.617 37.571 190.024 44.1525 195.49 48.6703L195.936 48.3914C191.585 44.766 187.625 39.1327 187.625 31.38C188.797 14.9263 209.099 5.66761 227.003 5.66761C239.775 5.66761 262.699 8.6237 262.699 29.9298C262.699 41.0849 250.819 55.5307 225.831 55.5307C213.115 55.5307 203.187 48.6703 203.187 38.8539C203.187 30.376 209.824 24.2965 219.696 24.2965C222.429 24.2965 224.995 24.9658 226.947 25.4678C222.82 24.687 216.461 25.8025 213.115 28.4239V42.8139H225.274V26.416C227.56 26.8064 229.401 27.6988 230.628 28.4797V42.8139H233.807C231.297 45.6584 226.668 47.3317 222.596 46.7182V47.3317C234.198 48.2241 239.162 42.7581 239.162 36.5113C239.162 29.2048 232.301 24.9658 225.329 24.0734V13.1973H213.17V24.1292C205.25 25.7467 197.498 30.4318 197.498 38.1846C197.498 50.1762 214.23 57.5943 228.732 57.5943C250.874 57.5943 267.942 46.8855 267.942 31.882C267.942 13.6992 243.289 0.703613 223.935 0.703613ZM240.835 36.9017C240.835 31.6031 237.21 27.3642 230.628 25.3005V13.1973H242.843V42.7581H238.994C240.333 40.8618 240.835 38.7423 240.835 36.9017Z" fill="#1E4A6E"/>
<path d="M170.781 75.3305V117.775L174.072 118.222V120.732H157.73V118.222L161.244 117.775V98.4772H140.384V117.775L143.619 118.222V120.732H127.611V118.222L130.791 117.775V75.3305L127.611 74.8843V72.4302H143.619V74.8843L140.384 75.3305V93.4574H161.244V75.3305L157.73 74.8843V72.4302H174.072V74.8843" fill="#1E4A6E"/>
<path d="M193.537 75.5544C193.537 78.7893 191.362 81.1877 188.35 81.1877C185.283 81.1877 183.163 79.0124 183.163 75.7775C183.163 72.7098 185.283 70.3115 188.35 70.3115C191.362 70.2557 193.537 72.6541 193.537 75.5544ZM192.422 118.055L195.49 118.501V120.677H180.486V118.501L183.554 118.055V88.9962L180.486 88.55V86.3748H192.422V118.055Z" fill="#1E4A6E"/>
<path d="M202.016 118.501L205.027 118.055V73.6577L202.016 73.2115V70.9805H213.952V118.055L217.019 118.501V120.732H202.016" fill="#1E4A6E"/>
<path d="M235.146 86.3745H243.234V89.6095H235.146V110.023C235.146 115.322 236.262 116.995 241.003 116.995C242.787 116.995 244.293 116.995 245.744 116.66V119.003C241.393 120.565 237.768 121.178 234.7 121.178C227.84 121.178 226.222 118.055 226.222 112.031V89.6095H219.975V86.3745H226.501V79.1795L235.202 76.5581" fill="#1E4A6E"/>
<path d="M273.575 103.665C273.575 92.7886 270.34 88.0477 265.153 88.0477C260.078 88.0477 256.898 92.5655 256.898 103.665C256.898 114.541 260.133 119.059 265.153 119.059C270.563 119.115 273.575 114.764 273.575 103.665ZM283.392 103.888C283.392 114.597 276.197 121.736 264.93 121.736C253.998 121.736 247.082 117.051 247.082 103.888C247.082 92.8444 254.277 85.4263 265.544 85.4263C276.643 85.4263 283.392 92.0635 283.392 103.888Z" fill="#1E4A6E"/>
<path d="M325 118.5V120.676H309.997V118.5L313.009 118.054V98.5329C313.009 93.1227 311.056 90.6686 306.929 90.6686C305.033 90.6686 302.021 92.0072 299.846 93.5131V117.998L302.913 118.445V120.62H287.854V118.445L290.922 117.998V89.1627L287.854 88.7164V86.3739H299.846V91.1148C303.583 88.1029 307.152 85.7046 312.228 85.7046C318.977 85.7046 321.988 89.6646 321.988 97.4732V118.11" fill="#1E4A6E"/>
<path d="M265.209 52.8533H264.093V52.4629H266.77V52.8533H265.767V56.8134H265.209V52.8533ZM269.894 56.0325L271.288 52.4629H271.958V56.8134H271.456V53.5226L270.173 56.8134H269.671L268.332 53.5226V56.8134H267.83V52.4629H268.555L269.894 56.0325Z" fill="#1E4A6E"/>
</svg>
