<svg width="452" height="150" viewBox="0 0 452 150" fill="none" xmlns="http://www.w3.org/2000/svg">
<path d="M131.038 31.8507H112V118.144H131.038V31.8507ZM145.969 118.144H165.008V83.7498H202.585V118.144H221.621V31.8507H202.585V66.2437H165.008V31.8507H145.969V118.144ZM298.518 56.7515L311.708 44.5472C307.725 39.8867 302.697 36.2142 297.025 33.8237C290.328 31.0436 283.096 29.7518 275.841 30.0393C268.585 30.3268 261.481 32.1865 255.029 35.4876C248.241 39.0925 242.614 44.5179 238.791 51.143C234.811 57.9231 232.82 65.8747 232.819 74.9979C232.671 83.0221 234.576 90.9528 238.357 98.0503C242.032 104.775 247.554 110.331 254.283 114.076C261.473 118.089 269.612 120.131 277.863 119.993C285.653 120.096 293.34 118.229 300.199 114.569C306.829 110.998 312.339 105.688 316.125 99.2207C320.064 92.6071 322.034 84.9026 322.034 76.1072C322.007 72.7962 321.674 69.4946 321.04 66.2437H275.871V83.7498H301.255C301.081 86.3335 300.346 88.8495 299.101 91.1261C297.855 93.4026 296.128 95.3861 294.038 96.9411C289.872 99.9461 284.932 101.72 279.79 102.058C274.648 102.396 269.514 101.284 264.984 98.8505C261.153 96.6164 258.045 93.3449 256.026 89.4207C253.743 84.9561 252.61 80.0014 252.729 74.9979C252.634 70.1625 253.678 65.3718 255.777 61.0053C257.718 57.0384 260.761 53.7026 264.549 51.3897C268.562 48.9939 273.179 47.7755 277.863 47.8763C285.412 47.8763 292.297 50.8347 298.518 56.7515H298.518ZM341 42.306C341.007 44.0297 340.499 45.7168 339.538 47.1538C338.577 48.5907 337.208 49.7128 335.603 50.3779C333.997 51.0429 332.229 51.221 330.522 50.8895C328.815 50.5581 327.245 49.732 326.012 48.516C324.779 47.3 323.938 45.7487 323.596 44.0588C323.254 42.3688 323.425 40.6162 324.089 39.023C324.753 37.4298 325.88 36.0677 327.326 35.1093C328.772 34.1509 330.472 33.6392 332.212 33.6392C333.367 33.6224 334.514 33.8348 335.586 34.2639C336.657 34.6929 337.63 35.3301 338.449 36.1377C339.268 36.9453 339.916 37.9071 340.354 38.9665C340.792 40.0258 341.011 41.1613 341 42.306ZM339.416 42.306C339.431 41.3573 339.256 40.415 338.899 39.5342C338.543 38.6534 338.013 37.8519 337.34 37.1765C336.667 36.501 335.866 35.9652 334.981 35.6003C334.097 35.2355 333.149 35.0489 332.191 35.0516C331.233 35.0542 330.286 35.246 329.404 35.6157C328.521 35.9854 327.723 36.5256 327.054 37.2047C326.385 37.8838 325.859 38.6883 325.508 39.571C325.156 40.4537 324.986 41.3969 325.007 42.3456C324.996 43.2912 325.176 44.2294 325.534 45.1057C325.893 45.9821 326.424 46.7791 327.096 47.4505C327.768 48.1219 328.568 48.6542 329.45 49.0167C330.332 49.3791 331.277 49.5644 332.232 49.5618C333.186 49.5592 334.13 49.3687 335.01 49.0014C335.89 48.6341 336.687 48.0974 337.355 47.4223C338.023 46.7472 338.55 45.9473 338.904 45.069C339.257 44.1907 339.431 43.2515 339.416 42.306V42.306ZM336.091 46.5023H334.111L332.012 43.1697H331.103V46.5023H329.204V37.9133H332.252C334.27 37.9133 335.577 38.7374 335.577 40.5031V40.5415C335.6 41.0731 335.435 41.596 335.109 42.0192C334.783 42.4423 334.318 42.7388 333.795 42.857L336.091 46.5023ZM333.716 40.5798C333.716 39.679 333.161 39.3652 332.212 39.3652H331.103V41.8748H332.212C333.202 41.8748 333.716 41.4447 333.716 40.6206V40.5798Z" fill="#D96932"/>
</svg>
