<svg width="452" height="150" viewBox="0 0 452 150" fill="none" xmlns="http://www.w3.org/2000/svg">
<path d="M151 0H301V150H151V0Z" fill="#3A469D"/>
<path d="M296.252 116.772L296.442 119.335V119.383H295.92C295.872 119.383 295.873 119.383 295.873 119.335L295.778 118.291L295.445 119.383C295.445 119.43 295.398 119.43 295.398 119.43H295.066C295.018 119.43 295.018 119.43 295.018 119.383L294.686 118.291L294.591 119.335V119.383H294.116C294.069 119.383 294.069 119.383 294.069 119.335L294.259 116.772C294.259 116.724 294.259 116.724 294.306 116.724H294.781C294.828 116.724 294.828 116.724 294.828 116.772L295.256 118.481L295.683 116.772C295.683 116.724 295.73 116.724 295.73 116.724H296.205C296.252 116.724 296.252 116.724 296.252 116.772V116.772ZM291.743 116.677H293.784C293.832 116.677 293.832 116.677 293.832 116.724V117.199C293.832 117.246 293.832 117.246 293.784 117.246H293.024V119.335C293.024 119.383 293.024 119.383 292.977 119.383H292.503C292.455 119.383 292.455 119.383 292.455 119.335V117.246H291.648V116.724C291.696 116.724 291.743 116.677 291.743 116.677Z" fill="white"/>
<path d="M280.588 144.303C273.753 144.256 268.104 138.417 267.914 131.154C267.772 123.702 273.706 117.484 280.778 117.484C287.661 117.531 293.405 123.322 293.547 130.585C293.737 138.085 287.756 144.398 280.588 144.303ZM281.063 121.993C276.459 121.803 272.709 125.98 272.709 130.87C272.709 135.616 276.174 139.651 280.636 139.699C285.288 139.746 288.943 135.474 288.895 130.632C288.8 126.028 285.478 122.088 281.063 121.993V121.993ZM245.937 144.778C236.111 144.351 228.231 136.091 228.041 125.791C227.899 115.063 235.873 106.139 246.506 106.139C249.829 106.139 255.24 106.329 261.459 112.879L257.946 116.582C252.582 111.36 248.595 110.98 246.506 111.075C237.013 111.36 233.025 119.715 233.215 125.648C233.405 134.715 240.668 139.746 246.269 139.936C252.962 140.126 259.418 134.715 259.513 127.879H246.839V122.895H264.924C265.778 137.563 255.81 145.3 245.937 144.778V144.778ZM157.788 143.828V106.281H163.247V143.828H157.788ZM202.741 144.303C194.718 143.971 190.541 137.658 190.351 131.107C189.924 123.797 195.62 117.436 202.978 117.484C204.734 117.484 206.443 118.053 207.44 118.48L209.339 119.43V124.889L208.532 123.987C207.915 123.322 205.019 121.946 202.646 121.993C198.231 122.041 195.146 125.838 195.051 130.3C194.813 135.474 197.946 139.461 202.883 139.746C203.263 139.746 210.763 139.461 210.763 130.727V106.281H215.699V130.87C215.699 137.658 210.525 144.683 202.741 144.303V144.303ZM182.472 143.828V130.205C182.472 122.658 178.769 122.515 176.823 122.325C174.26 121.898 170.794 124.604 170.794 128.971V143.876H166.048V129.256C166.048 121.613 171.554 117.626 176.965 117.579C179.576 117.579 187.408 119.81 187.408 129.018V143.828H182.472ZM218.88 112.025C219.117 108.037 224.718 108.227 224.623 112.072C224.481 116.202 218.642 115.68 218.88 112.025ZM219.497 143.828V117.816H224.481V143.828H219.497Z" fill="white" stroke="white" stroke-width="1.68776" stroke-miterlimit="10"/>
<path d="M250.684 63.8447C251.864 63.8447 252.82 62.8883 252.82 61.7086C252.82 60.5289 251.864 59.5725 250.684 59.5725C249.504 59.5725 248.548 60.5289 248.548 61.7086C248.548 62.8883 249.504 63.8447 250.684 63.8447Z" fill="white"/>
<path d="M250.684 58.1481C251.864 58.1481 252.82 57.1918 252.82 56.012C252.82 54.8323 251.864 53.876 250.684 53.876C249.504 53.876 248.548 54.8323 248.548 56.012C248.548 57.1918 249.504 58.1481 250.684 58.1481Z" fill="white"/>
<path d="M239.291 52.4518C240.471 52.4518 241.427 51.4955 241.427 50.3158C241.427 49.136 240.471 48.1797 239.291 48.1797C238.111 48.1797 237.155 49.136 237.155 50.3158C237.155 51.4955 238.111 52.4518 239.291 52.4518Z" fill="white"/>
<path d="M244.987 52.4518C246.167 52.4518 247.123 51.4955 247.123 50.3158C247.123 49.136 246.167 48.1797 244.987 48.1797C243.807 48.1797 242.851 49.136 242.851 50.3158C242.851 51.4955 243.807 52.4518 244.987 52.4518Z" fill="white"/>
<path d="M249.734 30.6166C250.914 30.6166 251.87 29.6603 251.87 28.4806C251.87 27.3008 250.914 26.3445 249.734 26.3445C248.554 26.3445 247.598 27.3008 247.598 28.4806C247.598 29.6603 248.554 30.6166 249.734 30.6166Z" fill="white"/>
<path d="M255.43 30.6166C256.61 30.6166 257.566 29.6603 257.566 28.4806C257.566 27.3008 256.61 26.3445 255.43 26.3445C254.25 26.3445 253.294 27.3008 253.294 28.4806C253.294 29.6603 254.25 30.6166 255.43 30.6166Z" fill="white"/>
<path d="M261.126 30.6166C262.306 30.6166 263.262 29.6603 263.262 28.4806C263.262 27.3008 262.306 26.3445 261.126 26.3445C259.946 26.3445 258.99 27.3008 258.99 28.4806C258.99 29.6603 259.946 30.6166 261.126 30.6166Z" fill="white"/>
<path d="M266.823 30.6166C268.002 30.6166 268.959 29.6603 268.959 28.4806C268.959 27.3008 268.002 26.3445 266.823 26.3445C265.643 26.3445 264.687 27.3008 264.687 28.4806C264.687 29.6603 265.643 30.6166 266.823 30.6166Z" fill="white"/>
<path d="M272.519 53.4013C273.699 53.4013 274.655 52.4449 274.655 51.2652C274.655 50.0855 273.699 49.1292 272.519 49.1292C271.339 49.1292 270.383 50.0855 270.383 51.2652C270.383 52.4449 271.339 53.4013 272.519 53.4013Z" fill="white"/>
<path d="M272.519 47.5629C273.699 47.5629 274.655 46.6066 274.655 45.4268C274.655 44.2471 273.699 43.2908 272.519 43.2908C271.339 43.2908 270.383 44.2471 270.383 45.4268C270.383 46.6066 271.339 47.5629 272.519 47.5629Z" fill="white"/>
<path d="M272.519 41.8666C273.699 41.8666 274.655 40.9103 274.655 39.7306C274.655 38.5508 273.699 37.5945 272.519 37.5945C271.339 37.5945 270.383 38.5508 270.383 39.7306C270.383 40.9103 271.339 41.8666 272.519 41.8666Z" fill="white"/>
<path d="M272.519 36.1706C273.699 36.1706 274.655 35.2142 274.655 34.0345C274.655 32.8548 273.699 31.8984 272.519 31.8984C271.339 31.8984 270.383 32.8548 270.383 34.0345C270.383 35.2142 271.339 36.1706 272.519 36.1706Z" fill="white"/>
<path d="M250.684 52.4518C251.864 52.4518 252.82 51.4955 252.82 50.3158C252.82 49.136 251.864 48.1797 250.684 48.1797C249.504 48.1797 248.548 49.136 248.548 50.3158C248.548 51.4955 249.504 52.4518 250.684 52.4518Z" fill="white"/>
<path d="M254.955 48.2275C256.135 48.2275 257.091 47.2711 257.091 46.0914C257.091 44.9117 256.135 43.9553 254.955 43.9553C253.776 43.9553 252.819 44.9117 252.819 46.0914C252.819 47.2711 253.776 48.2275 254.955 48.2275Z" fill="white"/>
<path d="M258.753 44.4772C259.933 44.4772 260.889 43.5209 260.889 42.3411C260.889 41.1614 259.933 40.2051 258.753 40.2051C257.574 40.2051 256.617 41.1614 256.617 42.3411C256.617 43.5209 257.574 44.4772 258.753 44.4772Z" fill="white"/>
<path d="M263.025 40.205C264.204 40.205 265.161 39.2487 265.161 38.0689C265.161 36.8892 264.204 35.9329 263.025 35.9329C261.845 35.9329 260.889 36.8892 260.889 38.0689C260.889 39.2487 261.845 40.205 263.025 40.205Z" fill="white"/>
<path d="M266.823 36.123C268.002 36.123 268.959 35.1666 268.959 33.9869C268.959 32.8072 268.002 31.8508 266.823 31.8508C265.643 31.8508 264.687 32.8072 264.687 33.9869C264.687 35.1666 265.643 36.123 266.823 36.123Z" fill="white"/>
<path d="M272.519 30.6166C273.699 30.6166 274.655 29.6603 274.655 28.4806C274.655 27.3008 273.699 26.3445 272.519 26.3445C271.339 26.3445 270.383 27.3008 270.383 28.4806C270.383 29.6603 271.339 30.6166 272.519 30.6166Z" fill="white"/>
<path d="M276.317 26.6296C277.496 26.6296 278.453 25.6732 278.453 24.4935C278.453 23.3138 277.496 22.3574 276.317 22.3574C275.137 22.3574 274.181 23.3138 274.181 24.4935C274.181 25.6732 275.137 26.6296 276.317 26.6296Z" fill="white"/>
<path d="M280.588 22.5944C281.768 22.5944 282.724 21.6381 282.724 20.4583C282.724 19.2786 281.768 18.3223 280.588 18.3223C279.409 18.3223 278.452 19.2786 278.452 20.4583C278.452 21.6381 279.409 22.5944 280.588 22.5944Z" fill="white"/>
</svg>
