<svg width="452" height="151" viewBox="0 0 452 151" fill="none" xmlns="http://www.w3.org/2000/svg">
<path d="M203.715 95.2757C203.715 95.2757 217.598 74.4548 218.849 72.3982C220.382 69.8812 220.445 65.8792 219.072 63.7297C218.373 62.6066 197.67 29.7405 197.67 29.7405C195.81 26.1896 196.271 23.7686 197.513 22.0349C199.555 19.0101 203.155 13.6509 203.155 13.6509C203.155 13.6509 228.285 53.2275 229.329 54.997C232.03 59.513 231.282 63.9334 229.059 67.7237C227.195 70.916 210.911 95.2784 210.911 95.2784" fill="#F99C1C"/>
<path d="M199.242 97.5237C199.242 97.5237 215.311 73.9107 216.505 71.9533C217.908 69.5622 217.753 66.1966 216.505 64.1673C215.835 63.0941 193.526 27.8427 193.526 27.8427C193.526 27.8427 189.566 33.8356 188.318 35.6881C187.071 37.5295 186.33 39.8281 188.47 43.5215C188.47 43.5215 204.45 68.8382 205.123 69.911C206.424 71.9769 206.368 75.7695 204.915 78.161C203.721 80.0916 187.244 104.209 187.244 104.209H234.793C239.622 104.209 242.272 102.323 244.61 98.9519C246.631 96.0857 254.453 84.6769 255.653 82.8864C256.835 81.0929 259.22 79.9 260.286 79.9H264.002L256.752 68.8262H245.184C242.975 68.8262 240.303 70.7957 238.902 72.8822C237.803 74.5293 229.889 86.4275 228.469 88.3408C227.659 89.4197 226.965 89.656 226.322 89.6618C225.968 89.6618 224.943 89.6555 224.818 89.6555C225.289 88.7052 238.574 69.2978 241.189 65.027C244.347 59.766 245.062 52.8201 241.304 46.1546C239.933 43.7372 212.323 0 212.323 0C212.323 0 208.643 5.3114 207.112 7.59173C205.87 9.44779 205.49 11.8782 207.279 15.4318C207.279 15.4318 230.455 52.4409 231.56 54.1353C234.252 58.3557 233.918 63.9958 231.56 67.8365C229.636 71.0047 213.621 95.2778 213.621 95.2778H226.311C230.908 95.2778 232.036 93.5651 233.304 92.148C234.574 90.7189 241.475 80.2162 242.255 79.1105C243.053 78.0136 245.065 74.9111 247.713 74.9111H256.047V75.1532C254.272 75.5118 252.521 76.5908 251.253 78.3365C249.984 80.0604 241.612 92.5124 240.603 93.9621C239.332 95.7914 237.885 97.5255 234.24 97.5255" fill="#F99C1C"/>
<path d="M157.928 120.833H162.269C163.26 120.833 163.932 121.408 163.932 122.52C163.932 123.63 163.26 124.206 162.269 124.206H152.937V127.116H161.941C165.437 127.116 167.154 124.803 167.154 122.454C167.154 120.103 165.436 117.809 161.941 117.809C160.438 117.809 157.58 117.818 157.58 117.818C156.608 117.818 155.958 117.255 155.958 116.179C155.958 115.095 156.608 114.534 157.58 114.534H166.929V111.625H157.929C154.473 111.625 152.769 113.674 152.769 116.236C152.766 118.806 154.471 120.833 157.928 120.833V120.833ZM204.283 127.113H211.172V117.007H207.785V124.123H203.817C200.955 124.123 199.034 122.466 199.034 119.288C199.034 116.1 200.953 114.456 203.817 114.456H211.17V111.626H204.281C198.471 111.626 195.609 115.807 195.609 119.388C195.609 122.961 198.473 127.113 204.283 127.113V127.113ZM170.617 111.626H174.003V127.114H170.617V111.626ZM181.578 114.454H187.188C188.563 114.454 189.444 115.713 189.444 116.881V127.112H192.823V116.453C192.823 113.814 190.952 111.623 187.955 111.623H183.514L181.58 114.204V111.623H178.197V127.112H181.58L181.578 114.454ZM271.527 114.456H276.843C278.089 114.456 278.873 115.658 278.873 116.739C278.873 117.82 278.086 118.986 276.844 118.986H272.682L279.422 127.111H283.436L278.656 121.337H278.665C280.72 120.67 282.041 118.774 282.041 116.638C282.041 113.97 279.987 111.622 276.992 111.622H268.194V127.11H271.527V114.456ZM298.244 127.113V124.279L289.208 124.285V120.315H297.078V117.498H289.208V114.454L298.244 114.456V111.626H285.803V127.113H289.208H298.244ZM222.263 114.296L224.712 119.892L219.831 119.901L222.263 114.296V114.296ZM218.676 122.617L225.867 122.621L227.871 127.112H231.566L224.012 111.623H220.515L212.962 127.112H216.684L218.676 122.617ZM236.691 114.454H241.942C243.185 114.454 243.977 115.755 243.977 116.926C243.977 118.09 243.183 119.354 241.942 119.354H236.691V114.454V114.454ZM236.691 119.597V119.59L238.624 122.166H242.085C244.995 122.166 247.047 119.734 247.047 116.928C247.047 114.109 244.995 111.628 242.085 111.628H233.29V127.116H236.691V119.597ZM257.275 114.046C260.175 114.046 262.541 116.419 262.541 119.351C262.541 122.258 260.175 124.627 257.275 124.627C254.358 124.627 251.994 122.258 251.994 119.351C251.994 116.42 254.358 114.046 257.275 114.046ZM257.275 127.762C261.899 127.762 265.655 123.988 265.655 119.354C265.655 114.694 261.897 110.922 257.275 110.922C252.642 110.922 248.905 114.694 248.905 119.354C248.903 123.988 252.64 127.762 257.275 127.762ZM227.644 135.019H231.046V150.497H227.644V135.019ZM225.268 150.502V147.668L217.379 147.674V135.017H213.974V150.502H217.379H225.268ZM176.748 137.687L179.194 143.282L174.314 143.291L176.748 137.687V137.687ZM173.162 146.006L180.347 146.01L182.348 150.5H186.044L178.492 135.015H174.996L167.443 150.5H171.168L173.162 146.006ZM199.751 137.847H205.071C206.313 137.847 207.105 139.048 207.105 140.129C207.105 141.21 206.311 142.376 205.071 142.376H200.91L207.652 150.499H211.664L206.881 144.726H206.89C208.944 144.06 210.265 142.165 210.265 140.03C210.265 137.362 208.215 135.014 205.222 135.014H196.423V150.499H199.751L199.751 137.847ZM188.32 135.017H191.707V150.502H188.32V135.017ZM274.379 144.223H278.712C279.71 144.223 280.38 144.797 280.38 145.909C280.38 147.019 279.71 147.595 278.712 147.595H269.385V150.504H278.389C281.883 150.504 283.601 148.192 283.601 145.844C283.601 143.493 281.88 141.199 278.389 141.199C276.888 141.199 274.026 141.208 274.026 141.208C273.058 141.208 272.407 140.645 272.407 139.569C272.407 138.486 273.058 137.926 274.026 137.926H283.372V135.017H274.379C270.918 135.017 269.214 137.066 269.214 139.627C269.216 142.197 270.918 144.223 274.379 144.223H274.379ZM265.958 150.502V147.668L256.922 147.674V143.705H264.796V140.889H256.921V137.845L265.958 137.847V135.017H253.522V150.502H256.922H265.958ZM238.577 137.845H244.19C245.563 137.845 246.439 139.103 246.439 140.271V150.5H249.821V139.844C249.821 137.205 247.952 135.015 244.953 135.015H240.512L238.579 137.595V135.015H235.197V150.5H238.579" fill="#021F5E"/>
</svg>
