<svg width="452" height="150" viewBox="0 0 452 150" fill="none" xmlns="http://www.w3.org/2000/svg">
<path d="M209.733 113.238H189.967L202.33 36.3843H222.095L209.733 113.238Z" fill="#00579F"/>
<path d="M281.385 38.2632C277.487 36.7082 271.303 34.9912 263.657 34.9912C244.138 34.9912 230.393 45.4559 230.308 60.4173C230.146 71.4558 240.15 77.5868 247.631 81.2674C255.278 85.0284 257.878 87.4832 257.878 90.8356C257.8 95.9843 251.699 98.3576 246.008 98.3576C238.116 98.3576 233.888 97.134 227.462 94.2695L224.86 93.0415L222.094 110.294C226.73 112.417 235.271 114.301 244.138 114.384C264.877 114.384 278.38 104.081 278.54 88.1374C278.618 79.3885 273.336 72.6848 261.948 67.2069C255.035 63.6904 250.801 61.3192 250.801 57.7212C250.882 54.4503 254.382 51.1001 262.186 51.1001C268.612 50.936 273.333 52.4889 276.91 54.0428L278.697 54.8589L281.385 38.2632V38.2632Z" fill="#00579F"/>
<path d="M307.656 86.0118C309.284 81.5966 315.547 64.5086 315.547 64.5086C315.465 64.6727 317.172 60.0119 318.148 57.1507L319.529 63.7729C319.529 63.7729 323.272 82.1693 324.085 86.0118C320.996 86.0118 311.56 86.0118 307.656 86.0118ZM332.054 36.3843H316.766C312.051 36.3843 308.469 37.7731 306.435 42.7609L277.075 113.237H297.815C297.815 113.237 301.229 103.752 301.963 101.709C304.238 101.709 324.414 101.709 327.341 101.709C327.908 104.407 329.699 113.237 329.699 113.237H348L332.054 36.3843V36.3843Z" fill="#00579F"/>
<path d="M173.458 36.3843L154.101 88.7915L151.986 78.1627C148.407 65.8984 137.183 52.5736 124.658 45.9481L142.389 113.157H163.29L194.359 36.3843H173.458V36.3843Z" fill="#00579F"/>
<path d="M136.126 36.3843H104.325L104 37.9371C128.807 44.3148 145.236 59.6881 151.986 78.1659L145.073 42.8446C143.935 37.9361 140.437 36.5462 136.126 36.3843Z" fill="#FAA61A"/>
</svg>
