<svg width="452" height="150" viewBox="0 0 452 150" fill="none" xmlns="http://www.w3.org/2000/svg">
<path d="M184.288 126.697V119.866C184.288 117.254 182.698 115.543 179.968 115.543C178.603 115.543 177.118 115.994 176.098 117.479C175.303 116.232 174.163 115.543 172.453 115.543C171.313 115.543 170.174 115.888 169.272 117.134V115.768H166.887V126.697H169.272V120.662C169.272 118.726 170.293 117.811 171.883 117.811C173.474 117.811 174.269 118.832 174.269 120.662V126.697H176.654V120.662C176.654 118.726 177.794 117.811 179.265 117.811C180.856 117.811 181.651 118.832 181.651 120.662V126.697H184.288ZM219.674 115.768H215.805V112.466H213.419V115.768H211.259V117.93H213.419V122.944C213.419 125.45 214.439 126.922 217.17 126.922C218.19 126.922 219.33 126.578 220.125 126.127L219.436 124.071C218.747 124.522 217.952 124.641 217.382 124.641C216.242 124.641 215.791 123.952 215.791 122.824V117.93H219.661V115.768H219.674ZM239.925 115.529C238.56 115.529 237.646 116.219 237.076 117.121V115.755H234.69V126.684H237.076V120.53C237.076 118.713 237.871 117.678 239.356 117.678C239.806 117.678 240.376 117.797 240.84 117.904L241.529 115.622C241.052 115.529 240.376 115.529 239.925 115.529ZM209.324 116.67C208.184 115.874 206.594 115.529 204.884 115.529C202.154 115.529 200.338 116.896 200.338 119.057C200.338 120.874 201.703 121.909 204.089 122.241L205.228 122.36C206.474 122.585 207.163 122.93 207.163 123.501C207.163 124.296 206.249 124.867 204.659 124.867C203.068 124.867 201.809 124.296 201.014 123.726L199.874 125.543C201.12 126.458 202.83 126.909 204.539 126.909C207.72 126.909 209.549 125.424 209.549 123.381C209.549 121.445 208.065 120.424 205.798 120.079L204.659 119.959C203.638 119.84 202.843 119.614 202.843 118.938C202.843 118.142 203.638 117.691 204.897 117.691C206.262 117.691 207.627 118.262 208.316 118.606L209.324 116.67ZM272.794 115.529C271.429 115.529 270.514 116.219 269.944 117.121V115.755H267.559V126.684H269.944V120.53C269.944 118.713 270.739 117.678 272.224 117.678C272.674 117.678 273.244 117.797 273.708 117.904L274.397 115.649C273.933 115.529 273.257 115.529 272.794 115.529ZM242.311 121.233C242.311 124.535 244.591 126.922 248.116 126.922C249.706 126.922 250.846 126.578 251.986 125.676L250.846 123.739C249.932 124.429 249.03 124.761 247.997 124.761C246.062 124.761 244.697 123.394 244.697 121.233C244.697 119.177 246.062 117.811 247.997 117.705C249.017 117.705 249.932 118.049 250.846 118.726L251.986 116.789C250.846 115.874 249.706 115.543 248.116 115.543C244.591 115.529 242.311 117.93 242.311 121.233ZM264.378 121.233V115.768H261.992V117.134C261.197 116.113 260.057 115.543 258.573 115.543C255.498 115.543 253.112 117.93 253.112 121.233C253.112 124.535 255.498 126.922 258.573 126.922C260.163 126.922 261.303 126.352 261.992 125.331V126.697H264.378V121.233ZM255.617 121.233C255.617 119.296 256.863 117.705 258.917 117.705C260.852 117.705 262.217 119.19 262.217 121.233C262.217 123.169 260.852 124.761 258.917 124.761C256.876 124.641 255.617 123.156 255.617 121.233ZM227.07 115.529C223.889 115.529 221.609 117.811 221.609 121.219C221.609 124.641 223.889 126.909 227.189 126.909C228.779 126.909 230.37 126.458 231.629 125.424L230.489 123.713C229.575 124.402 228.435 124.853 227.308 124.853C225.824 124.853 224.353 124.164 224.008 122.241H232.08C232.08 121.896 232.08 121.67 232.08 121.325C232.186 117.811 230.131 115.529 227.07 115.529ZM227.07 117.585C228.554 117.585 229.575 118.5 229.8 120.198H224.114C224.34 118.726 225.36 117.585 227.07 117.585ZM286.338 121.233V111.444H283.953V117.134C283.158 116.113 282.018 115.543 280.533 115.543C277.459 115.543 275.073 117.93 275.073 121.233C275.073 124.535 277.459 126.922 280.533 126.922C282.124 126.922 283.264 126.352 283.953 125.331V126.697H286.338V121.233ZM277.578 121.233C277.578 119.296 278.824 117.705 280.878 117.705C282.813 117.705 284.178 119.19 284.178 121.233C284.178 123.169 282.813 124.761 280.878 124.761C278.824 124.641 277.578 123.156 277.578 121.233ZM197.714 121.233V115.768H195.328V117.134C194.533 116.113 193.393 115.543 191.909 115.543C188.834 115.543 186.449 117.93 186.449 121.233C186.449 124.535 188.834 126.922 191.909 126.922C193.499 126.922 194.639 126.352 195.328 125.331V126.697H197.714V121.233ZM188.847 121.233C188.847 119.296 190.093 117.705 192.147 117.705C194.082 117.705 195.448 119.19 195.448 121.233C195.448 123.169 194.082 124.761 192.147 124.761C190.093 124.641 188.847 123.156 188.847 121.233Z" fill="black"/>
<path d="M244.366 32.7671H208.529V97.1996H244.366V32.7671Z" fill="#FF5A00"/>
<path d="M210.914 64.9832C210.914 51.8925 217.064 40.2739 226.5 32.767C219.555 27.3025 210.795 24 201.239 24C178.603 24 160.287 42.3297 160.287 64.9832C160.287 87.6367 178.603 105.966 201.239 105.966C210.795 105.966 219.555 102.664 226.5 97.1995C217.05 89.7986 210.914 78.074 210.914 64.9832Z" fill="#EB001B"/>
<path d="M292.713 64.9832C292.713 87.6367 274.397 105.966 251.761 105.966C242.205 105.966 233.445 102.664 226.5 97.1995C236.056 89.6793 242.086 78.074 242.086 64.9832C242.086 51.8925 235.936 40.2739 226.5 32.767C233.431 27.3025 242.192 24 251.747 24C274.397 24 292.713 42.4491 292.713 64.9832Z" fill="#F79E1B"/>
</svg>
